<?xml version="1.0" encoding="UTF-8"?>
<svg version="1.1" xmlns="http://www.w3.org/2000/svg" width="647" height="445">
<path d="M0 0 C213.51 0 427.02 0 647 0 C647 146.85 647 293.7 647 445 C433.49 445 219.98 445 0 445 C0 298.15 0 151.3 0 0 Z " fill="#FDFDFD" transform="translate(0,0)"/>
<path d="M0 0 C1.48898804 0.00132935 1.48898804 0.00132935 3.00805664 0.00268555 C23.70974835 0.33075515 44.3029961 7.83890043 59.1484375 22.48046875 C65.99482559 29.74862573 74.875 39.92027618 74.875 50.375 C75.48794922 50.4251123 76.10089844 50.47522461 76.73242188 50.52685547 C79.61357851 50.76443776 82.49427669 51.00722206 85.375 51.25 C86.33792969 51.32863281 87.30085938 51.40726563 88.29296875 51.48828125 C94.76464648 52.03816236 101.19895171 52.76427042 107.64126587 53.58935547 C114.59491711 54.47733115 121.55989879 55.24544057 128.5284729 56.00579834 C130.82112565 56.2578185 133.11312745 56.51516986 135.4050293 56.77392578 C142.64702543 57.58964704 149.88806186 58.38802373 157.1428833 59.08200073 C160.25034888 59.38239093 163.35559246 59.70269596 166.46075439 60.02593994 C167.93033816 60.1738127 169.40088113 60.31247939 170.87225342 60.44134521 C184.98235003 61.68333844 184.98235003 61.68333844 189.79760742 66.77001953 C191.42874681 69.19991084 191.74203024 70.96596268 191.625 73.875 C191.61726562 75.22078125 191.61726562 75.22078125 191.609375 76.59375 C190.55034118 80.60455893 188.93513996 82.59011073 185.875 85.375 C182.90127086 85.91334752 180.8239997 86.04206156 177.875 85.875 C177.06466309 85.85236084 176.25432617 85.82972168 175.41943359 85.80639648 C172.56731017 85.70771165 169.7235324 85.54877953 166.875 85.375 C165.75770508 85.30684082 164.64041016 85.23868164 163.48925781 85.16845703 C157.29324963 84.77496566 151.10145264 84.33633114 144.91015625 83.875 C139.25359807 83.45928703 133.60446292 83.15733655 127.9375 82.9375 C111.55714111 82.27432758 95.21065744 80.71871306 78.875 79.375 C78.90436646 80.23375732 78.90436646 80.23375732 78.93432617 81.10986328 C79.06897421 88.28966735 78.25120798 95.15844664 77.1875 102.25 C76.923927 104.05005493 76.923927 104.05005493 76.6550293 105.88647461 C71.47350178 140.57949467 71.47350178 140.57949467 68.875 148.375 C69.79302902 148.3248877 70.71105804 148.27477539 71.65690613 148.22314453 C80.40617426 147.74656934 89.155721 147.27554253 97.90560436 146.81039429 C102.40150894 146.57120298 106.89728759 146.33003746 111.39282227 146.08398438 C145.80545843 144.20355347 145.80545843 144.20355347 158.55078125 144.0625 C159.35783005 144.04493652 160.16487885 144.02737305 160.99638367 144.00927734 C166.48223763 144.01537557 169.40649143 145.47866229 173.64453125 148.734375 C175.37185697 151.03747596 175.44671096 152.76620843 175.5625 155.625 C175.62824219 156.53765625 175.69398438 157.4503125 175.76171875 158.390625 C174.30683254 163.28724642 171.23814668 165.85534841 166.875 168.375 C162.61279722 169.58118221 158.40871765 169.94155975 154 170.25 C152.21710571 170.41121338 152.21710571 170.41121338 150.39819336 170.57568359 C142.70036092 171.24668865 134.9782952 171.78293281 127.25634766 172.08544922 C123.54987893 172.21932601 123.54987893 172.21932601 119.91015625 172.87109375 C116.5795178 173.69576239 113.16539921 173.67008547 109.75 173.8125 C103.43399478 174.10893289 97.20944516 174.64447147 90.9375 175.4375 C81.57636952 176.59828849 72.29354651 176.56295326 62.875 176.375 C62.771875 177.426875 62.66875 178.47875 62.5625 179.5625 C61.80865063 185.60060742 60.28442426 191.46338958 58.875 197.375 C58.39550119 199.48240697 57.91888554 201.59047225 57.4453125 203.69921875 C52.61081631 225.02885068 52.61081631 225.02885068 49.43603516 235.50463867 C47.9830361 240.43004884 47.30430837 245.26098413 46.875 250.375 C47.57359131 250.23924561 48.27218262 250.10349121 48.99194336 249.96362305 C72.40309086 245.42058769 72.40309086 245.42058769 81.6875 243.8125 C96.41015026 241.25235001 111.05770612 238.35716996 125.6875 235.3125 C129.34406761 234.55467317 133.00079633 233.79763558 136.65771484 233.04150391 C138.62204776 232.63456591 140.5860126 232.22583924 142.54931641 231.81396484 C163.60988661 227.41593197 163.60988661 227.41593197 170 231.25 C172.14104771 233.67652073 172.79325685 234.80279797 173.25 238 C172.61667588 243.6999171 169.83144141 247.66311376 165.5625 251.3984375 C160.34391772 254.69109534 153.9344381 255.54612276 148 256.875 C145.52326207 257.44715781 143.04670047 258.02007941 140.5703125 258.59375 C139.30993164 258.88233887 138.04955078 259.17092773 136.75097656 259.46826172 C132.81987994 260.38789468 128.90562325 261.36029155 124.9921875 262.3515625 C117.38210498 264.27460071 109.73898649 266.02923346 102.081604 267.7527771 C84.05771525 271.81103965 84.05771525 271.81103965 66.14257812 276.32055664 C61.44452011 277.55630371 56.83563063 278.57447147 52.0234375 279.2578125 C42.85680371 280.32750534 42.85680371 280.32750534 35.34570312 285.07666016 C32.79068623 289.22099443 31.28386619 293.72091801 29.69970703 298.30126953 C25.96069554 307.70303497 17.09186319 314.09628789 8.875 319.375 C8.08609375 319.89707031 7.2971875 320.41914063 6.484375 320.95703125 C-8.40807662 329.04978565 -28.17407016 328.31542061 -44 323.875 C-63.18315985 317.99976044 -79.51603987 307.04149767 -92.125 291.375 C-92.60195313 290.78332031 -93.07890625 290.19164062 -93.5703125 289.58203125 C-94.84772589 287.89086447 -95.99936302 286.17074862 -97.125 284.375 C-97.58261719 283.64667969 -98.04023438 282.91835938 -98.51171875 282.16796875 C-105.9172334 269.51445159 -110.92236714 254.57675638 -113.5 240.1875 C-113.75695994 238.78760366 -114.0148175 237.38787186 -114.2734375 235.98828125 C-114.47791504 234.87767334 -114.47791504 234.87767334 -114.68652344 233.74462891 C-115.48099932 229.45109722 -116.29419561 225.16164795 -117.125 220.875 C-117.27888184 220.05104736 -117.43276367 219.22709473 -117.59130859 218.37817383 C-118.48396081 213.81362216 -119.69135793 209.63549373 -121.40234375 205.31396484 C-122.60324197 202.09182511 -123.36406939 198.78623177 -124.125 195.4375 C-124.37817993 194.34767822 -124.37817993 194.34767822 -124.63647461 193.23583984 C-125.98358957 187.30547383 -127.04354586 181.34195489 -128.04858398 175.34570312 C-128.8920129 170.41293934 -130.03604563 165.661896 -131.44140625 160.86328125 C-132.14649523 158.29675735 -132.65004493 155.74314075 -133.125 153.125 C-133.70369941 150.05789314 -134.37638693 147.78843049 -135.625 144.875 C-139.3481537 136.18764138 -140.0661445 126.73996869 -139.125 117.375 C-137.01369839 112.83961135 -134.21947668 110.2096377 -130.125 107.375 C-126.0577009 106.01923363 -122.39247149 105.58919568 -118.25390625 107.0234375 C-113.54409052 109.39353832 -111.26693841 112.56199154 -109.125 117.375 C-108.1106978 120.60609144 -107.39100785 123.87655123 -106.6875 127.1875 C-106.26728741 129.06186499 -105.84405517 130.93555528 -105.41796875 132.80859375 C-105.09965088 134.21020752 -105.09965088 134.21020752 -104.77490234 135.64013672 C-103.64880973 140.37886306 -102.30319815 145.05476466 -100.91235352 149.72192383 C-99.61922714 154.18405878 -98.65733487 158.65880036 -97.77978516 163.22143555 C-96.37526637 170.37184344 -94.71216849 177.44162181 -92.93637085 184.50964165 C-92.41932116 186.56848 -91.90701516 188.62845346 -91.39575195 190.68873596 C-89.94420329 196.53435966 -88.48382214 202.37777015 -87.02246094 208.22094727 C-86.12033243 211.82940948 -85.22281077 215.43899549 -84.32772827 219.0492115 C-83.83118336 221.04596253 -83.32940789 223.04134662 -82.82739258 225.03672791 C-80.87018692 232.92882447 -79.26446984 240.79564263 -77.93847656 248.81312561 C-76.68670622 254.29410555 -74.16573059 258.70007998 -71.125 263.375 C-70.526875 264.385625 -69.92875 265.39625 -69.3125 266.4375 C-63.28127149 274.53657829 -57.28322704 280.92790948 -48.125 285.375 C-47.30644531 285.7875 -46.48789062 286.2 -45.64453125 286.625 C-36.77416047 290.48985141 -26.37435249 291.01210997 -17.0234375 288.5625 C-10.59135468 285.76425249 -7.31743925 281.47700413 -4.125 275.375 C-3.57585937 274.39273438 -3.57585937 274.39273438 -3.015625 273.390625 C0.46806287 266.47684445 1.82909378 258.78907143 3.4609375 251.27636719 C3.95386614 249.01284818 4.47850789 246.75708302 5 244.5 C6.10322485 239.48623706 6.98674323 234.43050396 7.875 229.375 C8.535 229.375 9.195 229.375 9.875 229.375 C9.97296875 228.44300781 10.0709375 227.51101562 10.171875 226.55078125 C10.32140625 225.27589844 10.4709375 224.00101563 10.625 222.6875 C10.76421875 221.44613281 10.9034375 220.20476562 11.046875 218.92578125 C11.59778687 215.3108599 12.5837029 211.95704848 13.69921875 208.4765625 C16.31789938 200.24395886 18.11171229 191.87265677 19.9375 183.4375 C20.27880529 181.88075152 20.62060031 180.32411032 20.96289062 178.76757812 C21.63324775 175.71514652 22.29703772 172.66139701 22.95581055 169.60644531 C23.50900468 167.0441248 24.07812655 164.48801195 24.66333008 161.93261719 C26.9322697 151.88025764 28.45955044 141.73085122 29.98217773 131.54443359 C30.4357147 128.5119371 30.89602891 125.48052886 31.35742188 122.44921875 C38.67122273 88.17902624 38.67122273 88.17902624 31.6953125 55.64453125 C24.53714563 46.71986397 14.1527205 40.3847554 2.734375 38.62109375 C-7.66949417 37.72567878 -17.54414666 38.20871476 -27.80859375 40.02172852 C-38.02995123 41.79513404 -48.34317908 42.85591797 -58.64819336 44.01660156 C-59.37486206 44.09935333 -60.10153076 44.1821051 -60.85021973 44.2673645 C-62.85029431 44.4947874 -64.85079484 44.71845519 -66.85131836 44.94189453 C-69.91806147 45.27829413 -69.91806147 45.27829413 -72.02980042 45.87507629 C-74.34504038 46.42750259 -76.54789534 46.63604802 -78.921875 46.80688477 C-80.34113281 46.91455421 -80.34113281 46.91455421 -81.7890625 47.0243988 C-82.80742187 47.10013626 -83.82578125 47.17587372 -84.875 47.25390625 C-97.34493922 48.23855826 -109.72180759 49.70860411 -122.125 51.3125 C-124.12493879 51.56753777 -126.1249389 51.8220951 -128.125 52.07617188 C-132.10983816 52.58288726 -136.09433243 53.09219368 -140.07861328 53.60327148 C-147.36147123 54.53550759 -154.64738882 55.44294992 -161.93331909 56.35079956 C-166.93867875 56.97500471 -171.94311699 57.60471421 -176.9453125 58.25390625 C-186.42950139 59.48170501 -195.91456725 60.61566699 -205.4375 61.5 C-206.23494629 61.57549072 -207.03239258 61.65098145 -207.85400391 61.72875977 C-211.94267436 62.09062872 -216.02567089 62.37965836 -220.12670898 62.55029297 C-232.57832099 63.08090386 -244.87887126 64.35095406 -257.24926758 65.84912109 C-260.55404457 66.24897695 -263.8598792 66.63890517 -267.16601562 67.02734375 C-277.24137104 68.22131357 -287.30798869 69.47913904 -297.3515625 70.91796875 C-298.15730209 71.02853607 -298.96304169 71.13910339 -299.79319763 71.25302124 C-305.88569085 72.15674154 -310.98250551 73.89561011 -316.125 77.375 C-317.053125 77.973125 -317.98125 78.57125 -318.9375 79.1875 C-328.44113925 88.69113925 -330.5124406 101.44553489 -330.625 114.375 C-330.5341048 127.64992647 -328.59125781 140.67128183 -326.64208984 153.77734375 C-325.75054203 159.98029395 -325.03291659 166.20550136 -324.34057617 172.43359375 C-323.33959626 180.83961293 -321.74688919 189.13286306 -320.20849609 197.453125 C-319.31818095 202.28208776 -318.47132734 207.11718414 -317.64529419 211.95751953 C-316.99990343 215.73478291 -316.34027125 219.50950482 -315.67993164 223.28417969 C-315.34807931 225.19862375 -315.0216933 227.11402241 -314.70043945 229.03027344 C-312.36186823 246.23533115 -312.36186823 246.23533115 -303.125 260.375 C-298.47578293 263.29177197 -293.43377489 263.01985119 -288.125 262.375 C-285.48396615 261.29798265 -283.50287541 259.993979 -281.125 258.375 C-280.465 258.375 -279.805 258.375 -279.125 258.375 C-278.75375 257.6015625 -278.75375 257.6015625 -278.375 256.8125 C-277.39092641 254.8935565 -276.29960393 253.0296044 -275.171875 251.19140625 C-273.10554088 247.57344476 -271.99441085 243.93373172 -271.125 239.875 C-270.96185303 239.16303467 -270.79870605 238.45106934 -270.63061523 237.7175293 C-269.64901111 233.28737632 -268.86094198 228.84617552 -268.16015625 224.36328125 C-267.99708984 223.33976563 -267.83402344 222.31625 -267.66601562 221.26171875 C-267.35291951 219.25023597 -267.05789835 217.23583569 -266.78320312 215.21875 C-265.84164996 209.1134322 -264.62754744 205.68025272 -260.125 201.375 C-256.97588521 199.80044261 -254.60491184 200.02700882 -251.125 200.375 C-246.80821451 203.2257074 -244.6991419 205.50231531 -243.125 210.375 C-241.35481434 222.41226246 -245.24802434 234.78904377 -248.125 246.375 C-248.35856201 247.33486816 -248.59212402 248.29473633 -248.83276367 249.28369141 C-252.32840668 262.9692098 -259.96478203 276.16858643 -272.1875 283.75 C-282.0901117 289.38509684 -290.88276603 291.07676183 -302.125 289.375 C-312.12228679 286.59004154 -321.675804 279.9639125 -327.12109375 271.140625 C-333.3954053 259.52559402 -335.70321135 247.13920265 -338.0625 234.25 C-338.25767212 233.19223358 -338.25767212 233.19223358 -338.45678711 232.11309814 C-339.36195936 227.20318684 -340.24954244 222.29029169 -341.125 217.375 C-341.3120752 216.32570312 -341.49915039 215.27640625 -341.69189453 214.1953125 C-345.1755001 194.30845374 -347.55581173 174.24417188 -350.11593628 154.22273254 C-350.96160827 147.61598029 -351.83381656 141.01325646 -352.72753906 134.4128418 C-355.92117832 110.00347243 -356.04365413 86.28577852 -340.8125 65.625 C-327.75106788 49.88867764 -313.38410864 46.57791247 -293.96044922 43.90673828 C-287.72080703 43.04168795 -281.49209668 42.10423269 -275.26254272 41.16986084 C-272.82678957 40.805284 -270.39058219 40.44385113 -267.9543457 40.08251953 C-256.37680793 38.35729722 -244.81511008 36.5387857 -233.2578125 34.68359375 C-232.51273437 34.56411566 -231.76765625 34.44463757 -231 34.32153893 C-224.19764331 33.23069416 -217.39535595 32.13944584 -210.59509277 31.03561401 C-194.15644967 28.36730771 -177.7205224 25.85530621 -161.20509338 23.70713806 C-152.57895974 22.58306 -144.00650522 21.31014146 -135.4375 19.8125 C-132.91805577 19.38360312 -130.39852473 18.9552158 -127.87890625 18.52734375 C-126.7098877 18.32737793 -125.54086914 18.12741211 -124.33642578 17.92138672 C-114.32942939 16.21881275 -104.29830352 14.68698421 -94.25390625 13.22265625 C-93.54378387 13.11910828 -92.8336615 13.0155603 -92.10202026 12.90887451 C-85.98176302 12.01669383 -85.98176302 12.01669383 -83.19628906 11.61138916 C-72.94342163 10.11729912 -62.71920232 8.50820249 -52.50634766 6.75854492 C-44.9223529 5.4726204 -37.31993025 4.39248034 -29.69042969 3.41357422 C-25.31776034 2.84561813 -21.00963619 2.1695751 -16.68359375 1.3125 C-11.09985438 0.27798297 -5.67152264 -0.00925684 0 0 Z " fill="#142645" transform="translate(406.125,14.625)"/>
<path d="M0 0 C2.13756541 1.26103955 3.82028218 2.43496069 5.64453125 4.12890625 C7.11792969 5.44761719 7.11792969 5.44761719 8.62109375 6.79296875 C13.4096816 12.51611563 14.19521886 20.32569415 15.64453125 27.44140625 C15.98044431 29.0123407 16.31852019 30.58281414 16.65869141 32.15283203 C17.34129733 35.31090366 18.01424691 38.47079948 18.68066406 41.63232422 C20.23602518 48.95747911 21.99569427 56.23526702 23.7421875 63.5168457 C24.93160346 68.59549715 25.89201574 73.62654528 26.62109375 78.79296875 C27.29238933 83.41364585 28.33917645 87.52272323 29.92626953 91.8984375 C31.31172971 96.20080465 31.88161376 100.67365015 32.58203125 105.12890625 C34.07651296 114.14822189 35.90997553 122.98715129 38.09716797 131.859375 C39.16600915 136.29110901 40.14653267 140.74329244 41.14453125 145.19140625 C42.56503003 151.51397612 44.05949306 157.79930021 45.70703125 164.06640625 C47.61781195 171.518451 48.83854902 179.02990009 50.06567383 186.62060547 C51.06230421 192.52202862 52.42050665 198.04622866 54.39453125 203.69140625 C57.03943406 211.55287122 58.33356714 219.81296739 55.76953125 227.8828125 C53.7850785 231.84482754 50.76518263 233.75535579 46.64453125 235.12890625 C41.73186646 235.64469378 37.81550855 235.70334794 33.33203125 233.50390625 C25.77837646 226.82858342 23.86513925 220.8404613 22.2109375 211.25390625 C21.59585511 207.86034826 20.87976283 204.49840979 20.14453125 201.12890625 C19.26474681 197.09583499 18.44601663 193.07558238 17.76953125 189.00390625 C16.69695226 182.85930116 15.10259026 176.84716903 13.49658203 170.82373047 C12.01081006 165.10631496 11.04389219 159.41180393 10.18945312 153.56884766 C9.24110628 147.58219573 7.93469913 141.67462717 6.64453125 135.75390625 C6.38414062 134.53574219 6.12375 133.31757813 5.85546875 132.0625 C4.8559542 127.43343512 3.85001361 122.84699764 2.546875 118.29296875 C1.47013745 114.51739551 0.83269911 110.74986888 0.20703125 106.87890625 C-0.76857307 101.06908552 -2.00699317 95.4819168 -3.66796875 89.82421875 C-4.73873122 85.62634316 -5.27441825 81.36676444 -5.828125 77.07421875 C-6.24937547 74.13347627 -6.24937547 74.13347627 -7.40625 71.546875 C-8.43026905 68.93836556 -8.56354731 67.09953807 -8.48046875 64.31640625 C-8.46242187 63.52621094 -8.444375 62.73601562 -8.42578125 61.921875 C-8.40257812 61.33019531 -8.379375 60.73851562 -8.35546875 60.12890625 C-9.01546875 60.12890625 -9.67546875 60.12890625 -10.35546875 60.12890625 C-10.55124512 61.83663208 -10.55124512 61.83663208 -10.75097656 63.57885742 C-11.31427069 68.07306941 -12.13940078 72.48982747 -13.02734375 76.9296875 C-13.27140709 78.16859238 -13.27140709 78.16859238 -13.520401 79.43252563 C-13.86735237 81.19302036 -14.2154479 82.95328994 -14.56460571 84.71334839 C-15.47933282 89.32713838 -16.3840068 93.94289848 -17.2890625 98.55859375 C-17.46825729 99.47170822 -17.64745209 100.38482269 -17.83207703 101.3256073 C-20.54724265 115.18278031 -23.25806523 129.0512859 -25.45703125 143.00097656 C-26.90417759 152.16763901 -28.87870777 161.17568726 -30.94628906 170.22167969 C-32.39812805 176.63232756 -33.75430211 183.0493747 -34.97265625 189.5078125 C-35.10494125 190.20722458 -35.23722626 190.90663666 -35.3735199 191.62724304 C-36.01569781 195.03670614 -36.64619595 198.4479088 -37.26293945 201.86206055 C-39.98415821 216.4865888 -39.98415821 216.4865888 -44.54296875 221.56640625 C-48.20965692 223.60345524 -51.3089431 224.02725084 -55.35546875 223.12890625 C-60.56471899 219.92321379 -63.54338275 215.97835488 -65.35546875 210.12890625 C-66.10844821 201.86375025 -64.83462951 194.10595862 -63.04296875 186.06640625 C-62.57751243 183.87437849 -62.11530269 181.68165899 -61.65625 179.48828125 C-61.31907959 177.87856445 -61.31907959 177.87856445 -60.97509766 176.23632812 C-60.0869733 171.78240898 -59.39235592 167.30863355 -58.73046875 162.81640625 C-58.00448495 157.94538634 -57.20815802 153.20199768 -55.91796875 148.44140625 C-54.0912835 141.63629385 -53.09410034 134.7104279 -51.98120117 127.76147461 C-50.76543044 120.29382564 -49.31852034 112.90077563 -47.73046875 105.50390625 C-46.14769639 98.12552446 -44.72192515 90.81948095 -43.8125 83.32421875 C-43.31836362 79.86948745 -42.64924578 76.47894954 -41.95092773 73.06054688 C-40.88694444 67.82220684 -39.88381873 62.5719361 -38.86935425 57.32382202 C-38.47273394 55.27647938 -38.07361374 53.22963575 -37.67407227 51.18286133 C-36.48136924 45.05877186 -35.30511787 38.93487245 -34.25 32.78515625 C-31.85546009 18.93351627 -29.37455243 8.74933518 -17.35546875 0.12890625 C-11.88542774 -1.69444075 -5.46179154 -2.01986652 0 0 Z " fill="#142745" transform="translate(231.35546875,93.87109375)"/>
<path d="M0 0 C1.32 0 2.64 0 4 0 C4 2.97 4 5.94 4 9 C5.0725 8.79375 6.145 8.5875 7.25 8.375 C12.29032258 7.87096774 12.29032258 7.87096774 15 10 C16.75 12.625 16.75 12.625 18 15 C18.309375 14.030625 18.61875 13.06125 18.9375 12.0625 C20 9 20 9 21 8 C23.33944736 8.28730055 25.6739143 8.61936779 28 9 C28 10.32 28 11.64 28 13 C26.02 12.34 24.04 11.68 22 11 C22 11.99 22 12.98 22 14 C23.423125 14.185625 23.423125 14.185625 24.875 14.375 C28 15 28 15 30 17 C29.8125 19.5 29.8125 19.5 29 22 C26 24 26 24 23 23.6875 C20 23 20 23 17 22 C16.64035156 22.47824219 16.28070313 22.95648438 15.91015625 23.44921875 C13.18000901 25.66571866 10.90987451 25.58359486 7.4375 25.8125 C6.28121094 25.90144531 5.12492187 25.99039062 3.93359375 26.08203125 C1 26 1 26 -1 24 C-3.56780577 23.75646183 -3.56780577 23.75646183 -6.4375 23.875 C-7.40558594 23.89304687 -8.37367188 23.91109375 -9.37109375 23.9296875 C-10.23863281 23.95289063 -11.10617187 23.97609375 -12 24 C-17.66666667 24 -23.33333333 24 -29 24 C-29 16.41 -29 8.82 -29 1 C-27.68 1 -26.36 1 -25 1 C-25 7.27 -25 13.54 -25 20 C-21.7 20 -18.4 20 -15 20 C-14.67 18.68 -14.34 17.36 -14 16 C-10.5647952 13.70986347 -9.014669 13.82157027 -5 14 C-5 13.34 -5 12.68 -5 12 C-7.97 12 -10.94 12 -14 12 C-13.67 11.01 -13.34 10.02 -13 9 C-8.28400182 8.07529447 -5.32734391 7.77076223 -1 10 C-0.67 6.7 -0.34 3.4 0 0 Z " fill="#DC9152" transform="translate(375,374)"/>
<path d="M0 0 C2.5 2 2.5 2 4 4 C1.33333333 4 -1.33333333 4 -4 4 C-4.99 5.98 -5.98 7.96 -7 10 C-6.195625 9.566875 -6.195625 9.566875 -5.375 9.125 C4.57408113 4.41227736 15.59037252 4.92830664 26 8 C26.99 8.66 27.98 9.32 29 10 C29 9.34 29 8.68 29 8 C30.65 8 32.3 8 34 8 C33.54636829 9.58468677 33.08688548 11.16769924 32.625 12.75 C32.24214844 14.07257813 32.24214844 14.07257813 31.8515625 15.421875 C31.0790066 17.76080572 30.16374324 19.83442562 29 22 C28.01 22 27.02 22 26 22 C25.01 19.03 24.02 16.06 23 13 C22.34 13 21.68 13 21 13 C20.67 16.3 20.34 19.6 20 23 C18.18757948 23.02687279 16.37504767 23.04633715 14.5625 23.0625 C13.55316406 23.07410156 12.54382813 23.08570313 11.50390625 23.09765625 C9 23 9 23 8 22 C3.85723125 21.75266863 3.85723125 21.75266863 0 23 C-4.98109259 23.37593152 -8.05673864 23.1765161 -12 20 C-14.84437818 16.56712978 -15.58221861 13.47424589 -15.4296875 9 C-14.65395507 5.38931815 -12.60947818 3.54734775 -10 1 C-6.81225917 -0.59387042 -3.46072041 -0.52663137 0 0 Z " fill="#FAF4EA" transform="translate(285,375)"/>
<path d="M0 0 C5.875 0.875 5.875 0.875 7 2 C7.07258946 4.18639453 7.08373783 6.37500389 7.0625 8.5625 C7.05347656 9.76003906 7.04445312 10.95757812 7.03515625 12.19140625 C7.02355469 13.11824219 7.01195312 14.04507812 7 15 C7.66 15.33 8.32 15.66 9 16 C9 16.66 9 17.32 9 18 C10.65 17.67 12.3 17.34 14 17 C14.33 12.38 14.66 7.76 15 3 C15.66 3 16.32 3 17 3 C17.05397335 5.4377963 17.09365616 7.87439685 17.125 10.3125 C17.14175781 11.00279297 17.15851563 11.69308594 17.17578125 12.40429688 C17.21217794 16.17135396 17.14378864 17.78431704 15 21 C9.86620677 22.28344831 6.90233138 21.63411046 2 20 C1.06607422 20.47953125 1.06607422 20.47953125 0.11328125 20.96875 C-2.47338998 22.23100731 -3.81615927 22.01811463 -6.625 21.5625 C-9.9279896 20.93937628 -9.9279896 20.93937628 -13 22 C-15.04055005 22.07065617 -17.08334257 22.08421976 -19.125 22.0625 C-22.033125 22.0315625 -22.033125 22.0315625 -25 22 C-25 15.73 -25 9.46 -25 3 C-21.04 3 -17.08 3 -13 3 C-13 3.66 -13 4.32 -13 5 C-15.97 5 -18.94 5 -22 5 C-22 6.65 -22 8.3 -22 10 C-18.59963766 9.92982367 -15.32338193 9.75165343 -12 9 C-9.90023803 6.69762718 -9.90023803 6.69762718 -9 4 C-7 2 -7 2 -3.375 1.875 C-1.704375 1.936875 -1.704375 1.936875 0 2 C0 1.34 0 0.68 0 0 Z " fill="#DBDDE6" transform="translate(214,405)"/>
<path d="M0 0 C2 1.5 2 1.5 3 3 C2.01 3.495 2.01 3.495 1 4 C0.34 3.67 -0.32 3.34 -1 3 C-4 2.75 -4 2.75 -7 3 C-9.28728734 4.83883881 -9.28728734 4.83883881 -9.125 7.625 C-9.063125 8.800625 -9.063125 8.800625 -9 10 C-8.154375 9.690625 -7.30875 9.38125 -6.4375 9.0625 C-2.95319392 7.98553267 0.39471328 7.49484328 4 7 C4.33 6.67 4.66 6.34 5 6 C7.01964199 5.92755947 9.04167124 5.91622812 11.0625 5.9375 C12.16722656 5.94652344 13.27195312 5.95554687 14.41015625 5.96484375 C15.26480469 5.97644531 16.11945313 5.98804688 17 6 C17 8.31 17 10.62 17 13 C17.66 13 18.32 13 19 13 C19 10.69 19 8.38 19 6 C20.45792884 5.94600264 21.91642712 5.90720823 23.375 5.875 C24.18710937 5.85179687 24.99921875 5.82859375 25.8359375 5.8046875 C28 6 28 6 30 8 C30.1953125 10.3828125 30.1953125 10.3828125 30.125 13.125 C30.10695313 14.03507812 30.08890625 14.94515625 30.0703125 15.8828125 C30.04710937 16.58148438 30.02390625 17.28015625 30 18 C29.34 18 28.68 18 28 18 C27.505 13.545 27.505 13.545 27 9 C25.68 9 24.36 9 23 9 C22.67 12.3 22.34 15.6 22 19 C21.360625 18.814375 20.72125 18.62875 20.0625 18.4375 C15.92665389 17.84666484 12.1148827 18.41728241 8 19 C7.34 17.68 6.68 16.36 6 15 C5.34 15 4.68 15 4 15 C3.67 15.99 3.34 16.98 3 18 C-1.89779594 19.00132717 -4.94056256 19.54863725 -9.5 17.1875 C-12.81802903 14.2842246 -12.93616578 13.64898129 -13.375 9.1875 C-13.31327317 5.7986973 -12.98866791 4.98300186 -11 2 C-6.88044169 -0.74637221 -4.88445953 -0.63025284 0 0 Z " fill="#BABFCA" transform="translate(360,408)"/>
<path d="M0 0 C1.13598633 0.00483398 1.13598633 0.00483398 2.29492188 0.00976562 C3.47344727 0.02233398 3.47344727 0.02233398 4.67578125 0.03515625 C5.47306641 0.03966797 6.27035156 0.04417969 7.09179688 0.04882812 C9.05732382 0.06059775 11.0228121 0.07853277 12.98828125 0.09765625 C12.98828125 1.41765625 12.98828125 2.73765625 12.98828125 4.09765625 C11.00828125 4.09765625 9.02828125 4.09765625 6.98828125 4.09765625 C6.98828125 9.37765625 6.98828125 14.65765625 6.98828125 20.09765625 C5.99828125 20.09765625 5.00828125 20.09765625 3.98828125 20.09765625 C3.98828125 14.48765625 3.98828125 8.87765625 3.98828125 3.09765625 C0.35828125 3.42765625 -3.27171875 3.75765625 -7.01171875 4.09765625 C-7.01171875 5.08765625 -7.01171875 6.07765625 -7.01171875 7.09765625 C-6.35171875 7.48953125 -5.69171875 7.88140625 -5.01171875 8.28515625 C-3.01171875 10.09765625 -3.01171875 10.09765625 -2.640625 11.9609375 C-2.54525192 15.02970661 -2.66319166 17.37881913 -4.01171875 20.16015625 C-7.37961712 21.73885861 -10.41235927 20.74672107 -14.01171875 20.09765625 C-14.67171875 21.41765625 -15.33171875 22.73765625 -16.01171875 24.09765625 C-17.66171875 23.76765625 -19.31171875 23.43765625 -21.01171875 23.09765625 C-21.01171875 15.83765625 -21.01171875 8.57765625 -21.01171875 1.09765625 C-20.02171875 1.09765625 -19.03171875 1.09765625 -18.01171875 1.09765625 C-18.01171875 1.75765625 -18.01171875 2.41765625 -18.01171875 3.09765625 C-17.35171875 3.09765625 -16.69171875 3.09765625 -16.01171875 3.09765625 C-15.68171875 3.75765625 -15.35171875 4.41765625 -15.01171875 5.09765625 C-14.46902344 4.82050781 -13.92632812 4.54335938 -13.3671875 4.2578125 C-12.65175781 3.89558594 -11.93632812 3.53335937 -11.19921875 3.16015625 C-10.49152344 2.80050781 -9.78382813 2.44085938 -9.0546875 2.0703125 C-5.92447262 0.58001899 -3.4266356 -0.02576418 0 0 Z " fill="#E8ECF1" transform="translate(489.01171875,406.90234375)"/>
<path d="M0 0 C2.5 2 2.5 2 4 5 C4.33433938 9.61388349 3.57797328 13.04335458 1.1875 17 C-0.9823046 18.98382135 -2.11558865 19.69095593 -5 20 C-5 20.66 -5 21.32 -5 22 C-12.2 22.6 -12.2 22.6 -15.5 20.125 C-17.63411905 15.67891865 -17.89865665 11.84190004 -17 7 C-15.29419405 3.5813971 -12.89562019 1.5420859 -9.625 -0.4375 C-6.03419523 -1.20695817 -3.54397128 -0.96653762 0 0 Z " fill="#E97E26" transform="translate(603,239)"/>
<path d="M0 0 C2.5647293 1.50012468 4.89183465 2.89183465 7 5 C7.59650091 9.43222825 8.00606511 13.97251002 5.9765625 18.0625 C3.77505039 20.59241447 2.02664601 21.80968637 -1.296875 22.42578125 C-5.4702907 22.55534808 -7.44454585 22.37030276 -11 20 C-11 19.34 -11 18.68 -11 18 C-11.66 18 -12.32 18 -13 18 C-14.05335853 7.66705438 -14.05335853 7.66705438 -11.65234375 3.8671875 C-8.02716568 0.56867383 -4.9746197 -1.05842972 0 0 Z " fill="#E87F27" transform="translate(608,158)"/>
<path d="M0 0 C3.49406769 1.66762322 4.82670681 2.74006022 7 6 C7.62847424 10.78663517 7.86862924 15.37604098 5.5625 19.6875 C1.70343653 21.66409348 -1.76307088 21.89119008 -6 21 C-9.28175318 18.47031526 -10.69243777 16.92268669 -12 13 C-12.38887761 8.80012182 -12.45908323 6.70392762 -10.125 3.125 C-6.78093438 -0.21906562 -4.66879831 -0.36618026 0 0 Z " fill="#E87F29" transform="translate(617,80)"/>
<path d="M0 0 C0.66 0 1.32 0 2 0 C2 0.99 2 1.98 2 3 C3.65 3 5.3 3 7 3 C7 3.66 7 4.32 7 5 C7.99 4.34 8.98 3.68 10 3 C16.16985463 3.33052793 16.16985463 3.33052793 18.9375 5.5625 C19.288125 6.036875 19.63875 6.51125 20 7 C20.33 5.68 20.66 4.36 21 3 C23.31 3 25.62 3 28 3 C28 3.66 28 4.32 28 5 C27.01 5.33 26.02 5.66 25 6 C24.67 9.3 24.34 12.6 24 16 C23.01 16 22.02 16 21 16 C21 15.34 21 14.68 21 14 C20.34 14 19.68 14 19 14 C19 14.66 19 15.32 19 16 C12.29481414 16.19818283 6.34823202 16.30844801 0 14 C0 11.03 0 8.06 0 5 C-0.66 5 -1.32 5 -2 5 C-2 4.34 -2 3.68 -2 3 C-1.34 3 -0.68 3 0 3 C0 2.01 0 1.02 0 0 Z " fill="#6B7481" transform="translate(394,411)"/>
<path d="M0 0 C1.32 0 2.64 0 4 0 C4 6.27 4 12.54 4 19 C7.3 19 10.6 19 14 19 C14.33 17.68 14.66 16.36 15 15 C18.4352048 12.70986347 19.985331 12.82157027 24 13 C24 12.34 24 11.68 24 11 C21.03 11 18.06 11 15 11 C15.33 10.01 15.66 9.02 16 8 C22.30364849 6.6665359 22.30364849 6.6665359 25.21875 8.0625 C27.80779934 10.87865894 27.39856598 12.93620902 27.25 16.6875 C27.21390625 17.86699219 27.1778125 19.04648437 27.140625 20.26171875 C27.07101562 21.61716797 27.07101562 21.61716797 27 23 C18 23 9 23 0 23 C0 15.41 0 7.82 0 0 Z " fill="#ECAC77" transform="translate(346,375)"/>
<path d="M0 0 C3.96 0 7.92 0 12 0 C12 0.66 12 1.32 12 2 C9.03 2 6.06 2 3 2 C3 3.65 3 5.3 3 7 C4.62600941 6.9129995 6.25089678 6.8048219 7.875 6.6875 C8.77992188 6.62949219 9.68484375 6.57148438 10.6171875 6.51171875 C13.36221601 6.2117961 13.36221601 6.2117961 15 3 C15 3.7425 15 4.485 15 5.25 C16.20665714 8.56830714 16.98992519 8.80059811 20.0625 10.3125 C21.36728944 10.89266121 22.67773548 11.46085342 24 12 C23.67 13.32 23.34 14.64 23 16 C20.39417629 16.93065133 19.35801776 17.14917407 16.75 16.0625 C16.1725 15.711875 15.595 15.36125 15 15 C14.67 15.99 14.34 16.98 14 18 C11.23547967 19.38226016 8.9538637 19.09525387 5.875 19.0625 C2.966875 19.0315625 2.966875 19.0315625 0 19 C0 12.73 0 6.46 0 0 Z " fill="#E6E9EE" transform="translate(189,408)"/>
<path d="M0 0 C3.0625 0.125 3.0625 0.125 5.0625 1.125 C5.3925 2.115 5.7225 3.105 6.0625 4.125 C7.0525 4.125 8.0425 4.125 9.0625 4.125 C11.6875 6.5625 11.6875 6.5625 14.0625 9.125 C14.3925 9.455 14.7225 9.785 15.0625 10.125 C14.4625 16.725 14.4625 16.725 12.0625 19.125 C8.6875 19.5625 8.6875 19.5625 5.0625 19.125 C2.625 16.875 2.625 16.875 1.0625 14.125 C1.0625 12.805 1.0625 11.485 1.0625 10.125 C0.4025 10.125 -0.2575 10.125 -0.9375 10.125 C-0.9375 13.095 -0.9375 16.065 -0.9375 19.125 C-1.9275 19.455 -2.9175 19.785 -3.9375 20.125 C-3.9375 16.495 -3.9375 12.865 -3.9375 9.125 C-4.5975 9.125 -5.2575 9.125 -5.9375 9.125 C-5.9375 8.465 -5.9375 7.805 -5.9375 7.125 C-5.2775 7.125 -4.6175 7.125 -3.9375 7.125 C-3.958125 6.155625 -3.97875 5.18625 -4 4.1875 C-3.91794329 0.16672099 -3.91794329 0.16672099 0 0 Z " fill="#E6E9EE" transform="translate(434.9375,406.875)"/>
<path d="M0 0 C3.4375 0.6875 3.4375 0.6875 5.4375 1.6875 C6.4275 1.0275 7.4175 0.3675 8.4375 -0.3125 C12.125 0.0625 12.125 0.0625 15.4375 0.6875 C15.4375 1.3475 15.4375 2.0075 15.4375 2.6875 C12.4675 2.1925 12.4675 2.1925 9.4375 1.6875 C9.4375 2.6775 9.4375 3.6675 9.4375 4.6875 C11.9125 5.1825 11.9125 5.1825 14.4375 5.6875 C14.7675 7.3375 15.0975 8.9875 15.4375 10.6875 C12.4375 12.6875 12.4375 12.6875 9.9375 12.3125 C9.1125 12.10625 8.2875 11.9 7.4375 11.6875 C4.92957501 11.6875 2.88283661 11.9442873 0.4375 12.375 C-3.26966511 12.82476636 -3.26966511 12.82476636 -5.5625 11.75 C-7.23994139 8.29027712 -6.9264008 5.50845843 -6.5625 1.6875 C-3.5625 -0.3125 -3.5625 -0.3125 0 0 Z " fill="#D0D9E0" transform="translate(262.5625,414.3125)"/>
<path d="M0 0 C5.53846154 0.49230769 5.53846154 0.49230769 7.875 3.0625 C8.24625 3.701875 8.6175 4.34125 9 5 C8.67 5.33 8.34 5.66 8 6 C8.66 6.33 9.32 6.66 10 7 C9.67 7.66 9.34 8.32 9 9 C0.42857143 8 0.42857143 8 -3 7 C-3 9.31 -3 11.62 -3 14 C-3.66 14 -4.32 14 -5 14 C-5 11.69 -5 9.38 -5 7 C-6.89611434 7.14213297 -8.79188394 7.28886907 -10.6875 7.4375 C-11.74324219 7.51871094 -12.79898437 7.59992188 -13.88671875 7.68359375 C-19.13444493 8.20191755 -19.13444493 8.20191755 -24 10.0625 C-26.44989787 11.21088963 -28.32638335 11.14853426 -31 11 C-31.33 11.99 -31.66 12.98 -32 14 C-32.36180905 6.64321608 -32.36180905 6.64321608 -30.875 4 C-28.16271063 2.55344567 -26.026326 2.74780617 -23 3 C-22.01 3.33 -21.02 3.66 -20 4 C-17.22406334 3.63474518 -15.00555858 3.00244035 -12.4375 1.875 C-9.71503572 0.89770513 -8.63968984 0.90771455 -6 2 C-5.34 2.66 -4.68 3.32 -4 4 C-3.34 4.33 -2.68 4.66 -2 5 C-1.34 4.34 -0.68 3.68 0 3 C0 2.01 0 1.02 0 0 Z " fill="#F4F6F8" transform="translate(382,407)"/>
<path d="M0 0 C0.33 0 0.66 0 1 0 C1 7.59 1 15.18 1 23 C11.07549967 24.01695036 11.07549967 24.01695036 15 21 C15.33 20.01 15.66 19.02 16 18 C16.66 18 17.32 18 18 18 C18.12375 16.72125 18.2475 15.4425 18.375 14.125 C18.75 10.25 18.75 10.25 21 8 C24.625 8.375 24.625 8.375 28 9 C28 10.32 28 11.64 28 13 C26.02 12.34 24.04 11.68 22 11 C22 11.99 22 12.98 22 14 C22.94875 14.12375 23.8975 14.2475 24.875 14.375 C28 15 28 15 30 17 C29.8125 19.5 29.8125 19.5 29 22 C26 24 26 24 23 23.6875 C20 23 20 23 17 22 C16.64035156 22.47824219 16.28070313 22.95648438 15.91015625 23.44921875 C13.18000901 25.66571866 10.90987451 25.58359486 7.4375 25.8125 C6.28121094 25.90144531 5.12492187 25.99039062 3.93359375 26.08203125 C1 26 1 26 -1 24 C-1.33 24 -1.66 24 -2 24 C-2.09087891 22.62714844 -2.09087891 22.62714844 -2.18359375 21.2265625 C-2.26738281 20.03804688 -2.35117187 18.84953125 -2.4375 17.625 C-2.51871094 16.44164062 -2.59992188 15.25828125 -2.68359375 14.0390625 C-2.81084936 11.08481099 -2.81084936 11.08481099 -4 9 C-3.01 9.33 -2.02 9.66 -1 10 C-0.67 6.7 -0.34 3.4 0 0 Z " fill="#FEEDD6" transform="translate(375,374)"/>
<path d="M0 0 C2 1.5 2 1.5 3 3 C2.01 3.495 2.01 3.495 1 4 C0.34 3.67 -0.32 3.34 -1 3 C-4 2.75 -4 2.75 -7 3 C-9.28728734 4.83883881 -9.28728734 4.83883881 -9.125 7.625 C-9.063125 8.800625 -9.063125 8.800625 -9 10 C-8.154375 9.690625 -7.30875 9.38125 -6.4375 9.0625 C-2.94286705 7.98234073 0.37864561 7.46943483 4 7 C5.33917261 6.69096017 6.67653254 6.37057089 8 6 C7.01 7.485 7.01 7.485 6 9 C5.68830524 10.34534919 5.41907043 11.70106943 5.1875 13.0625 C4.29730051 16.7876425 4.29730051 16.7876425 1.8125 18.5625 C-3.28590021 19.35558448 -6.67421147 18.9308728 -10.9375 15.9375 C-13.25361564 12.63878985 -13.76063594 10.88462572 -13.4765625 6.9375 C-11.70240818 -0.27545525 -6.23380561 -0.80436201 0 0 Z " fill="#EBEEF1" transform="translate(360,408)"/>
<path d="M0 0 C5.625 -0.25 5.625 -0.25 9 2 C9.66 1.34 10.32 0.68 11 0 C14.625 -0.125 14.625 -0.125 18 0 C18 0.66 18 1.32 18 2 C17.01 2.33 16.02 2.66 15 3 C14.67 5.97 14.34 8.94 14 12 C3.44191344 13.33257403 3.44191344 13.33257403 -1 12 C-1.625 9.625 -1.625 9.625 -2 7 C0 5 0 5 3.125 4.875 C4.07375 4.91625 5.0225 4.9575 6 5 C6 4.01 6 3.02 6 2 C3.69 2.33 1.38 2.66 -1 3 C-0.67 2.01 -0.34 1.02 0 0 Z " fill="#2F384B" transform="translate(296,414)"/>
<path d="M0 0 C2 2 2 2 2.1953125 5.0390625 C2.17210937 6.22242188 2.14890625 7.40578125 2.125 8.625 C2.10695313 9.81351562 2.08890625 11.00203125 2.0703125 12.2265625 C2.04710937 13.14179688 2.02390625 14.05703125 2 15 C0.39667209 15.08121924 -1.20784026 15.13929134 -2.8125 15.1875 C-4.15248047 15.23970703 -4.15248047 15.23970703 -5.51953125 15.29296875 C-8 15 -8 15 -9.83203125 13.6484375 C-11 12 -11 12 -10.875 9.4375 C-10 7 -10 7 -7 5 C-3.8125 4.875 -3.8125 4.875 -1 5 C-1.33 4.34 -1.66 3.68 -2 3 C-4.64 3 -7.28 3 -10 3 C-9.67 2.01 -9.34 1.02 -9 0 C-5.47955362 -1.17348213 -3.57539179 -0.83679382 0 0 Z " fill="#DC8F52" transform="translate(302,383)"/>
<path d="M0 0 C4.84995136 1.32271401 4.84995136 1.32271401 6.4375 3.9375 C6.4375 5.5875 6.4375 7.2375 6.4375 8.9375 C2.8075 8.9375 -0.8225 8.9375 -4.5625 8.9375 C-4.5625 9.9275 -4.5625 10.9175 -4.5625 11.9375 C-1.0405279 12.01754482 2.05731469 11.97755702 5.4375 10.9375 C5.4375 11.9275 5.4375 12.9175 5.4375 13.9375 C1.94625983 16.26499345 0.54527749 16.44049316 -3.5625 15.9375 C-5.9375 14.4375 -5.9375 14.4375 -7.5625 11.9375 C-8.37947796 7.86928321 -8.17099319 4.93542883 -6 1.375 C-3.5625 -0.0625 -3.5625 -0.0625 0 0 Z " fill="#D98F50" transform="translate(328.5625,382.0625)"/>
<path d="M0 0 C2.5 2 2.5 2 4 4 C1.98773521 4 -0.02767812 3.9980875 -2.03515625 3.859375 C-5.21309682 3.68792541 -7.40304922 3.5839434 -10.0625 5.4375 C-11.47133119 9.28830526 -11.19392819 13.08572911 -10 17 C-6.29873141 19.46751239 -4.37776468 19.30721156 0 19 C2.35369807 18.11935073 2.35369807 18.11935073 4 17 C4 18.32 4 19.64 4 21 C0.34387956 23.33991708 -2.73207376 23.37437949 -7 23 C-11.14798495 21.20882468 -13.2414131 19.16507424 -15 15 C-15.83389634 8.43306631 -15.83389634 8.43306631 -13.9453125 5.1875 C-9.9023649 0.21156449 -6.31859665 -0.96152558 0 0 Z " fill="#D98E4F" transform="translate(285,375)"/>
<path d="M0 0 C0.66 0 1.32 0 2 0 C2 2.64 2 5.28 2 8 C3.11375 7.79375 4.2275 7.5875 5.375 7.375 C7.169375 7.189375 7.169375 7.189375 9 7 C11 9 11 9 11.1953125 11.3828125 C11.17210937 12.28773438 11.14890625 13.19265625 11.125 14.125 C11.10695313 15.03507812 11.08890625 15.94515625 11.0703125 16.8828125 C11.04710937 17.58148438 11.02390625 18.28015625 11 19 C10.34 19 9.68 19 9 19 C8.67 16.03 8.34 13.06 8 10 C6.68 10 5.36 10 4 10 C3.67 13.3 3.34 16.6 3 20 C2.01 20 1.02 20 0 20 C0 19.34 0 18.68 0 18 C-0.804375 18.5259375 -0.804375 18.5259375 -1.625 19.0625 C-4.80703406 20.31856608 -6.74212952 19.92070253 -10 19 C-12.31282587 15.53076119 -12.42478586 14.07794425 -12 10 C-10.875 8.125 -10.875 8.125 -9 7 C-5.8125 6.8125 -5.8125 6.8125 -3 7 C-2.67 7.99 -2.34 8.98 -2 10 C-2.969375 9.979375 -3.93875 9.95875 -4.9375 9.9375 C-7.87465895 9.64381501 -7.87465895 9.64381501 -9 11 C-9.04063832 12.66617115 -9.042721 14.33388095 -9 16 C-7.329375 15.9690625 -7.329375 15.9690625 -5.625 15.9375 C-2 16 -2 16 0 17 C0 11.39 0 5.78 0 0 Z " fill="#5D6473" transform="translate(327,407)"/>
<path d="M0 0 C8 0 8 0 11 2 C11.34498879 5.17389689 11.46475637 7.21725243 9.8125 10 C9.544375 10.66 9.27625 11.32 9 12 C10.28322447 15.23394361 10.28322447 15.23394361 12 18 C11.01 18 10.02 18 9 18 C7.58398438 15.31445312 7.58398438 15.31445312 6.16796875 12.62890625 C5.00980201 10.67732013 5.00980201 10.67732013 2 10 C2 12.64 2 15.28 2 18 C1.34 18 0.68 18 0 18 C0 12.06 0 6.12 0 0 Z " fill="#2C3348" transform="translate(242,408)"/>
<path d="M0 0 C2.375 1.5 2.375 1.5 4 3 C3.25 9.75 3.25 9.75 1 12 C-5.05240175 12.55021834 -5.05240175 12.55021834 -7.9375 10.875 C-9.50422245 8.11019567 -9.38976435 6.11811483 -9 3 C-6.78557651 -0.69070582 -4.02540619 -0.49290688 0 0 Z " fill="#4D5466" transform="translate(446,414)"/>
<path d="M0 0 C3.4375 0.75 3.4375 0.75 5.4375 2.75 C5.7642107 5.82108055 5.91888276 7.90050101 4.375 10.625 C1.3305714 12.39273274 -1.1256012 12.11823916 -4.5625 11.75 C-6.5625 10.6875 -6.5625 10.6875 -7.5625 8.75 C-7.4375 5.1875 -7.4375 5.1875 -6.5625 1.75 C-3.5625 -0.25 -3.5625 -0.25 0 0 Z " fill="#303847" transform="translate(480.5625,414.25)"/>
<path d="M0 0 C2.97 0 5.94 0 9 0 C11 2 11 2 11.3125 5 C11.1578125 6.485 11.1578125 6.485 11 8 C7.5647952 10.29013653 6.014669 10.17842973 2 10 C2 12.97 2 15.94 2 19 C1.34 19 0.68 19 0 19 C0 12.73 0 6.46 0 0 Z " fill="#333A4D" transform="translate(175,408)"/>
<path d="M0 0 C0.99 0 1.98 0 3 0 C3.33 3.3 3.66 6.6 4 10 C4.33 10 4.66 10 5 10 C5.309375 10.969375 5.61875 11.93875 5.9375 12.9375 C6.69523342 15.84065792 6.69523342 15.84065792 8 17 C13.32673036 17.33856828 13.32673036 17.33856828 18 15 C17.1875 16.9375 17.1875 16.9375 16 19 C12.52176885 20.15941038 10.54104422 19.70820884 7 19 C6.34 20.32 5.68 21.64 5 23 C3.35 22.67 1.7 22.34 0 22 C0 14.74 0 7.48 0 0 Z " fill="#A8ADB8" transform="translate(468,408)"/>
<path d="M0 0 C3.96 0 7.92 0 12 0 C12 0.66 12 1.32 12 2 C8.7 2 5.4 2 2 2 C2 3.98 2 5.96 2 8 C4.97 8 7.94 8 11 8 C11 8.66 11 9.32 11 10 C8.36 10 5.72 10 3 10 C3 11.98 3 13.96 3 16 C5.97 16 8.94 16 12 16 C12 16.99 12 17.98 12 19 C8.04 19 4.08 19 0 19 C0 12.73 0 6.46 0 0 Z " fill="#3D485C" transform="translate(189,408)"/>
<path d="M0 0 C1.32 0 2.64 0 4 0 C4 0.66 4 1.32 4 2 C3.01 2 2.02 2 1 2 C1.33 3.98 1.66 5.96 2 8 C3.65 8 5.3 8 7 8 C6.67 8.99 6.34 9.98 6 11 C11.94 10.67 17.88 10.34 24 10 C24.33 11.32 24.66 12.64 25 14 C22.36 13.67 19.72 13.34 17 13 C16.01 15.97 15.02 18.94 14 22 C13.67 22 13.34 22 13 22 C12.34 19.36 11.68 16.72 11 14 C5.5155733 13.25669086 5.5155733 13.25669086 0 13 C0 10.03 0 7.06 0 4 C-0.99 3.67 -1.98 3.34 -3 3 C-2.34 3 -1.68 3 -1 3 C-0.67 2.01 -0.34 1.02 0 0 Z " fill="#FCF0DF" transform="translate(379,370)"/>
<path d="M0 0 C5.75 0.875 5.75 0.875 8 2 C7.67 3.65 7.34 5.3 7 7 C7.99 7.33 8.98 7.66 10 8 C9.25 9.9375 9.25 9.9375 8 12 C6.1875 12.5625 6.1875 12.5625 4 13 C2.94039063 13.26490234 2.94039063 13.26490234 1.859375 13.53515625 C1.16328125 13.70917969 0.4671875 13.88320313 -0.25 14.0625 C-1.4875 14.371875 -2.725 14.68125 -4 15 C-3.34 13.35 -2.68 11.7 -2 10 C-3.32 9.67 -4.64 9.34 -6 9 C-5 8 -5 8 -1.125 7.9375 C0.25004315 7.95525886 1.62505294 7.97592505 3 8 C3.99 8 4.98 8 6 8 C3.09907498 6.06604999 2.10325263 5.69868059 -1.1875 5.375 C-2.445625 5.25125 -3.70375 5.1275 -5 5 C-5 4.34 -5 3.68 -5 3 C-3.35 3 -1.7 3 0 3 C0 2.01 0 1.02 0 0 Z " fill="#FCF2E5" transform="translate(282,370)"/>
<path d="M0 0 C2 2 2 2 2 6 C-0.97 6 -3.94 6 -7 6 C-7 6.99 -7 7.98 -7 9 C-4.36 8.67 -1.72 8.34 1 8 C0.67 8.99 0.34 9.98 0 11 C-5.25490196 12.31372549 -5.25490196 12.31372549 -8.375 11 C-10 9 -10 9 -10.4375 5.5 C-10 2 -10 2 -8.9375 0 C-5.80557344 -1.61647822 -3.32814714 -0.78665296 0 0 Z " fill="#41485B" transform="translate(290,415)"/>
<path d="M0 0 C3.625 0.375 3.625 0.375 7 1 C7 2.32 7 3.64 7 5 C5.02 4.34 3.04 3.68 1 3 C1 3.99 1 4.98 1 6 C1.94875 6.12375 2.8975 6.2475 3.875 6.375 C7 7 7 7 9 9 C8.8125 11.5 8.8125 11.5 8 14 C5 16 5 16 1.9375 15.6875 C-1 15 -1 15 -3 14 C-2.67 13.01 -2.34 12.02 -2 11 C0.31 11.33 2.62 11.66 5 12 C5.33 11.34 5.66 10.68 6 10 C4.865625 9.690625 3.73125 9.38125 2.5625 9.0625 C-1 8 -1 8 -2 7 C-2.1875 4.5625 -2.1875 4.5625 -2 2 C-1.34 1.34 -0.68 0.68 0 0 Z " fill="#DB8D4B" transform="translate(396,382)"/>
<path d="M0 0 C2.97 0.495 2.97 0.495 6 1 C6 5.62 6 10.24 6 15 C-0.93359375 15.09765625 -0.93359375 15.09765625 -3 15 C-4 14 -4 14 -4.1875 11.5625 C-4 9 -4 9 -2 7 C1.125 7.375 1.125 7.375 4 8 C3.67 7.34 3.34 6.68 3 6 C0.47266765 5.34444881 0.47266765 5.34444881 -2 5 C-1.67 4.34 -1.34 3.68 -1 3 C-0.34 3 0.32 3 1 3 C0.67 2.01 0.34 1.02 0 0 Z " fill="#EDF2F6" transform="translate(321,409)"/>
<path d="M0 0 C0.66 0 1.32 0 2 0 C2 0.99 2 1.98 2 3 C3.65 3 5.3 3 7 3 C8 6 8 6 7.9375 9 C7.73510628 12.18467943 7.73510628 12.18467943 10 15 C6.06329512 16.31223496 3.87511856 15.24296256 0 14 C0 11.03 0 8.06 0 5 C-0.66 5 -1.32 5 -2 5 C-2 4.34 -2 3.68 -2 3 C-1.34 3 -0.68 3 0 3 C0 2.01 0 1.02 0 0 Z " fill="#ECF0F6" transform="translate(394,411)"/>
<path d="M0 0 C3.63 0 7.26 0 11 0 C11 5.61 11 11.22 11 17 C8.70986347 13.5647952 8.82157027 12.014669 9 8 C5.68539295 9.70892499 5.68539295 9.70892499 5.3125 13.125 C5.209375 14.07375 5.10625 15.0225 5 16 C4.67 16 4.34 16 4 16 C3.97421875 15.38511719 3.9484375 14.77023437 3.921875 14.13671875 C3.7185352 9.00745409 3.7185352 9.00745409 0.9375 4.9375 C-0.0215625 4.4734375 -0.0215625 4.4734375 -1 4 C-0.67 2.68 -0.34 1.36 0 0 Z " fill="#F0F3F6" transform="translate(482,410)"/>
<path d="M0 0 C1 1 1 1 1.0625 3.5625 C1.041875 4.366875 1.02125 5.17125 1 6 C-1.97 6 -4.94 6 -8 6 C-7.67 6.66 -7.34 7.32 -7 8 C-4.36 8 -1.72 8 1 8 C0.67 8.99 0.34 9.98 0 11 C-2.31 11.33 -4.62 11.66 -7 12 C-9.23079726 9.58330297 -9.96940652 8.24984673 -10.375 4.9375 C-10 2 -10 2 -8.9375 0.0625 C-5.84787273 -1.63181173 -3.32782582 -0.73951685 0 0 Z " fill="#353E51" transform="translate(375,415)"/>
<path d="M0 0 C3.375 0.6875 3.375 0.6875 4.375 1.6875 C4.41563832 3.35367115 4.417721 5.02138095 4.375 6.6875 C1.405 6.6875 -1.565 6.6875 -4.625 6.6875 C-4.295 7.3475 -3.965 8.0075 -3.625 8.6875 C-1.315 8.6875 0.995 8.6875 3.375 8.6875 C3.045 9.6775 2.715 10.6675 2.375 11.6875 C-2.99813433 13.00093284 -2.99813433 13.00093284 -5.5 11.75 C-7.37133465 8.31921981 -6.99391265 5.56108282 -6.625 1.6875 C-3.625 -0.3125 -3.625 -0.3125 0 0 Z " fill="#343C4E" transform="translate(262.625,414.3125)"/>
<path d="M0 0 C2.31 0 4.62 0 7 0 C7 0.66 7 1.32 7 2 C6.01 2.33 5.02 2.66 4 3 C3.67 6.3 3.34 9.6 3 13 C2.01 13 1.02 13 0 13 C0 12.34 0 11.68 0 11 C-0.66 11 -1.32 11 -2 11 C-2 11.66 -2 12.32 -2 13 C-3.32 12.67 -4.64 12.34 -6 12 C-5.01 11.01 -4.02 10.02 -3 9 C-3.99 9.495 -3.99 9.495 -5 10 C-6.99960012 10.039992 -9.00047242 10.04346799 -11 10 C-11 9.01 -11 8.02 -11 7 C-8.03 7 -5.06 7 -2 7 C-1.22227595 4.66682784 -0.57584432 2.38564077 0 0 Z " fill="#D3D8DF" transform="translate(415,414)"/>
<path d="M0 0 C2 1.5 2 1.5 3 3 C2.01 3.495 2.01 3.495 1 4 C0.34 3.67 -0.32 3.34 -1 3 C-4 2.75 -4 2.75 -7 3 C-9.4282022 4.99557113 -9.4282022 4.99557113 -9.3125 8.9375 C-9.23330121 11.49981382 -9.11578846 12.78772116 -7.875 15.0625 C-5.03003564 16.48498218 -3.01505058 15.75376265 0 15 C0.99 14.67 1.98 14.34 3 14 C2.4375 15.9375 2.4375 15.9375 1 18 C-2.25 19 -2.25 19 -6 19 C-11.46835443 16.06329114 -11.46835443 16.06329114 -13 13 C-13.68571429 6.02857143 -13.68571429 6.02857143 -11 2 C-6.88044169 -0.74637221 -4.88445953 -0.63025284 0 0 Z " fill="#565E6D" transform="translate(360,408)"/>
<path d="M0 0 C0.66 0 1.32 0 2 0 C2.33 5.28 2.66 10.56 3 16 C5.31 15.34 7.62 14.68 10 14 C10.33 9.38 10.66 4.76 11 0 C11.66 0 12.32 0 13 0 C13.05397335 2.4377963 13.09365616 4.87439685 13.125 7.3125 C13.15013672 8.34793945 13.15013672 8.34793945 13.17578125 9.40429688 C13.21217794 13.17135396 13.14378864 14.78431704 11 18 C7.625 18.9375 7.625 18.9375 4 19 C1.7890625 17.48828125 1.7890625 17.48828125 0 15 C-0.2911521 12.26317029 -0.38322418 9.96059961 -0.25 7.25 C-0.23195312 6.55261719 -0.21390625 5.85523438 -0.1953125 5.13671875 C-0.14838554 3.42388461 -0.07664605 1.71176176 0 0 Z " fill="#3E4555" transform="translate(218,408)"/>
<path d="M0 0 C3.5 0.1875 3.5 0.1875 5.5 1.1875 C5.5 1.8475 5.5 2.5075 5.5 3.1875 C2.86 3.1875 0.22 3.1875 -2.5 3.1875 C-2.46044102 5.11059422 -2.46044102 5.11059422 -1.5 7.1875 C1.45009373 8.91262465 1.45009373 8.91262465 4.5 10.1875 C5.5 11.1875 5.5 11.1875 5.75 13.5625 C5.5 16.1875 5.5 16.1875 4.4375 18.0625 C1.38430685 19.83532183 -1.16411708 18.87985306 -4.5 18.1875 C-4.83 17.1975 -5.16 16.2075 -5.5 15.1875 C-3.19 15.5175 -0.88 15.8475 1.5 16.1875 C1.83 14.8675 2.16 13.5475 2.5 12.1875 C-0.14 10.8675 -2.78 9.5475 -5.5 8.1875 C-5.625 5.3125 -5.625 5.3125 -5.5 2.1875 C-3.5 0.1875 -3.5 0.1875 0 0 Z " fill="#3B4351" transform="translate(209.5,407.8125)"/>
<path d="M0 0 C6.57692308 0.57692308 6.57692308 0.57692308 8 2 C7.71269945 4.33944736 7.38063221 6.6739143 7 9 C1.55263158 10.33157895 1.55263158 10.33157895 -0.875 8.875 C-2.3568671 6.40522151 -2.3633156 4.83386167 -2 2 C-1.34 1.34 -0.68 0.68 0 0 Z " fill="#FDE7C9" transform="translate(381,385)"/>
<path d="M0 0 C3.49406769 1.66762322 4.82670681 2.74006022 7 6 C7.30078125 8.62890625 7.30078125 8.62890625 7.3125 11.5625 C7.32925781 12.53316406 7.34601562 13.50382812 7.36328125 14.50390625 C7.24339844 15.32761719 7.12351562 16.15132812 7 17 C6.01 17.66 5.02 18.32 4 19 C4.165 18.484375 4.33 17.96875 4.5 17.4375 C5.15049 14.26636124 5.0620734 11.22781666 5 8 C4.34 8 3.68 8 3 8 C2.773125 7.21625 2.54625 6.4325 2.3125 5.625 C1.21875 2.78125 1.21875 2.78125 -1.625 1.6875 C-2.800625 1.3471875 -2.800625 1.3471875 -4 1 C-3.67 1.99 -3.34 2.98 -3 4 C-4.98 4 -6.96 4 -9 4 C-9 8.29 -9 12.58 -9 17 C-11 16 -11 16 -12 13 C-12.38887761 8.80012182 -12.45908323 6.70392762 -10.125 3.125 C-6.78093438 -0.21906562 -4.66879831 -0.36618026 0 0 Z " fill="#DC8F50" transform="translate(617,80)"/>
<path d="M0 0 C4.62 0 9.24 0 14 0 C14 0.66 14 1.32 14 2 C12.35 2 10.7 2 9 2 C9 7.61 9 13.22 9 19 C8.01 19 7.02 19 6 19 C6 13.39 6 7.78 6 2 C4.02 2 2.04 2 0 2 C0 1.34 0 0.68 0 0 Z " fill="#475061" transform="translate(487,408)"/>
<path d="M0 0 C2.0625 1.4375 2.0625 1.4375 4 4 C4.40068629 8.56952873 3.5485833 12.09200005 1.1875 16 C-0.9823046 17.98382135 -2.11558865 18.69095593 -5 19 C-5 19.66 -5 20.32 -5 21 C-10.22015915 21.43501326 -10.22015915 21.43501326 -13 21 C-15.5 18.6875 -15.5 18.6875 -17 16 C-17 15.01 -17 14.02 -17 13 C-16.34 13 -15.68 13 -15 13 C-14.67 14.65 -14.34 16.3 -14 18 C-10.7 18 -7.4 18 -4 18 C-4 17.34 -4 16.68 -4 16 C-2.68 15.67 -1.36 15.34 0 15 C0 14.01 0 13.02 0 12 C0.66 12 1.32 12 2 12 C2 9.36 2 6.72 2 4 C1.34 4 0.68 4 0 4 C0 2.68 0 1.36 0 0 Z " fill="#DC8F4E" transform="translate(603,240)"/>
<path d="M0 0 C0 0.66 0 1.32 0 2 C-0.99 2.33 -1.98 2.66 -3 3 C-3.33 5.97 -3.66 8.94 -4 12 C-6.31 12.33 -8.62 12.66 -11 13 C-10.91266424 11.39482903 -10.80447776 9.79078338 -10.6875 8.1875 C-10.62949219 7.29417969 -10.57148438 6.40085937 -10.51171875 5.48046875 C-9.25641039 -0.60442291 -5.5384516 -0.31349726 0 0 Z " fill="#CED4DC" transform="translate(314,414)"/>
<path d="M0 0 C3.29148243 1.13499394 3.9959869 1.99283376 5.75 5.125 C6.1625 6.07375 6.575 7.0225 7 8 C7.99 5.36 8.98 2.72 10 0 C10.99 0 11.98 0 13 0 C12.54636829 1.58468677 12.08688548 3.16769924 11.625 4.75 C11.36976563 5.63171875 11.11453125 6.5134375 10.8515625 7.421875 C10.0790066 9.76080572 9.16374324 11.83442562 8 14 C7.01 14 6.02 14 5 14 C4.15973604 12.23244474 3.32801278 10.46082737 2.5 8.6875 C2.0359375 7.70136719 1.571875 6.71523438 1.09375 5.69921875 C0 3 0 3 0 0 Z " fill="#DB9155" transform="translate(306,383)"/>
<path d="M0 0 C2 2 2 2 2.1953125 5.0390625 C2.17210937 6.22242188 2.14890625 7.40578125 2.125 8.625 C2.10695313 9.81351562 2.08890625 11.00203125 2.0703125 12.2265625 C2.04710937 13.14179688 2.02390625 14.05703125 2 15 C0.35 15 -1.3 15 -3 15 C-2.835 14.505 -2.67 14.01 -2.5 13.5 C-1.79311182 9.96555911 -1.93994845 6.60309299 -2 3 C-4.64 3 -7.28 3 -10 3 C-9.67 2.01 -9.34 1.02 -9 0 C-5.47955362 -1.17348213 -3.57539179 -0.83679382 0 0 Z " fill="#DE9A5F" transform="translate(302,383)"/>
<path d="M0 0 C2.31406112 3.47109168 2.08619615 4.94878113 2 9 C2.33 9.66 2.66 10.32 3 11 C2.38125 11.28875 1.7625 11.5775 1.125 11.875 C-1.13325765 12.93720042 -1.13325765 12.93720042 -3 15 C-3.99 14.67 -4.98 14.34 -6 14 C-6 13.34 -6 12.68 -6 12 C-5.34 12 -4.68 12 -4 12 C-4 9.03 -4 6.06 -4 3 C-2.68 2.67 -1.36 2.34 0 2 C0 1.34 0 0.68 0 0 Z " fill="#FBFDFD" transform="translate(314,414)"/>
<path d="M0 0 C0.66 0 1.32 0 2 0 C2 6.6 2 13.2 2 20 C5.3 20 8.6 20 12 20 C12 20.66 12 21.32 12 22 C8.04 22 4.08 22 0 22 C0 14.74 0 7.48 0 0 Z " fill="#D68542" transform="translate(347,375)"/>
<path d="M0 0 C0.99 0.66 1.98 1.32 3 2 C3 1.34 3 0.68 3 0 C3.66 0 4.32 0 5 0 C4.44271087 3.34373475 3.64826111 6.03312999 2 9 C0.42015087 6.98928293 -0.94266986 5.11803264 -2.0625 2.8125 C-2.86702161 0.82107843 -2.86702161 0.82107843 -5 0 C-4.67 1.65 -4.34 3.3 -4 5 C-4.33 5 -4.66 5 -5 5 C-5.33 8.3 -5.66 11.6 -6 15 C-6.33 15 -6.66 15 -7 15 C-7.09087891 13.62714844 -7.09087891 13.62714844 -7.18359375 12.2265625 C-7.30927734 10.44378906 -7.30927734 10.44378906 -7.4375 8.625 C-7.51871094 7.44164062 -7.59992188 6.25828125 -7.68359375 5.0390625 C-7.81084936 2.08481099 -7.81084936 2.08481099 -9 0 C-5.46627283 -1.17790906 -3.59454905 -0.82375082 0 0 Z " fill="#FEEFDC" transform="translate(311,383)"/>
<path d="M0 0 C2.5625 0.1875 2.5625 0.1875 4.5625 2.1875 C4.75 4.75 4.75 4.75 4.5625 7.1875 C3.5625 8.1875 3.5625 8.1875 0.625 8.375 C-2.4375 8.1875 -2.4375 8.1875 -4.4375 6.1875 C-3.71780303 0.28598485 -3.71780303 0.28598485 0 0 Z " fill="#CFD6E0" transform="translate(479.4375,415.8125)"/>
<path d="M0 0 C1.2065625 0.0309375 1.2065625 0.0309375 2.4375 0.0625 C2.4375 0.7225 2.4375 1.3825 2.4375 2.0625 C1.4475 2.0625 0.4575 2.0625 -0.5625 2.0625 C-0.5625 3.7125 -0.5625 5.3625 -0.5625 7.0625 C0.0975 7.0625 0.7575 7.0625 1.4375 7.0625 C1.4375 7.7225 1.4375 8.3825 1.4375 9.0625 C0.4475 9.0625 -0.5425 9.0625 -1.5625 9.0625 C-1.5625 12.6925 -1.5625 16.3225 -1.5625 20.0625 C-2.2225 20.0625 -2.8825 20.0625 -3.5625 20.0625 C-3.5625 16.4325 -3.5625 12.8025 -3.5625 9.0625 C-4.2225 9.0625 -4.8825 9.0625 -5.5625 9.0625 C-5.5625 8.4025 -5.5625 7.7425 -5.5625 7.0625 C-4.9025 7.0625 -4.2425 7.0625 -3.5625 7.0625 C-3.583125 6.093125 -3.60375 5.12375 -3.625 4.125 C-3.54257968 0.08640438 -3.54257968 0.08640438 0 0 Z " fill="#374254" transform="translate(434.5625,406.9375)"/>
<path d="M0 0 C3.3 0 6.6 0 10 0 C10 2.64 10 5.28 10 8 C9.1646875 7.505 9.1646875 7.505 8.3125 7 C6.0183468 5.82635137 6.0183468 5.82635137 3.375 6 C2.59125 6 1.8075 6 1 6 C0.34 5.34 -0.32 4.68 -1 4 C-0.67 2.68 -0.34 1.36 0 0 Z " fill="#E4E9F0" transform="translate(207,410)"/>
<path d="M0 0 C2.33944736 0.28730055 4.6739143 0.61936779 7 1 C7 1.66 7 2.32 7 3 C4.03 2.505 4.03 2.505 1 2 C1 2.99 1 3.98 1 5 C2.65 5.33 4.3 5.66 6 6 C6.33 7.65 6.66 9.3 7 11 C4 13 4 13 1.3125 12.625 C0.549375 12.41875 -0.21375 12.2125 -1 12 C-1.33 11.01 -1.66 10.02 -2 9 C0.97 9.495 0.97 9.495 4 10 C4 9.34 4 8.68 4 8 C1.525 7.01 1.525 7.01 -1 6 C-1.042721 4.33388095 -1.04063832 2.66617115 -1 1 C-0.67 0.67 -0.34 0.34 0 0 Z " fill="#2F394A" transform="translate(271,414)"/>
<path d="M0 0 C0.99 0 1.98 0 3 0 C3.16435547 1.22976563 3.16435547 1.22976563 3.33203125 2.484375 C3.56986328 4.10085938 3.56986328 4.10085938 3.8125 5.75 C3.96332031 6.81734375 4.11414063 7.8846875 4.26953125 8.984375 C5.01320407 12.05451094 5.92765472 13.66080478 8 16 C4.73045798 15.43628586 3.17424117 14.50037734 1 12 C0.34 12.66 -0.32 13.32 -1 14 C-2.23593891 10.29218328 -1.5678132 9.32489747 -0.0625 5.8125 C0.31777344 4.91144531 0.69804687 4.01039063 1.08984375 3.08203125 C1.39019531 2.39496094 1.69054687 1.70789063 2 1 C1.34 0.67 0.68 0.34 0 0 Z " fill="#FCE4CB" transform="translate(317,382)"/>
<path d="M0 0 C1.65 0 3.3 0 5 0 C5 3.96 5 7.92 5 12 C4.34 11.34 3.68 10.68 3 10 C1.01643517 9.28591666 -0.98315437 8.61382258 -3 8 C-2.01 5.36 -1.02 2.72 0 0 Z " fill="#FAF7F1" transform="translate(370,374)"/>
<path d="M0 0 C5.53846154 0.49230769 5.53846154 0.49230769 7.875 3.0625 C8.431875 4.0215625 8.431875 4.0215625 9 5 C8.67 5.33 8.34 5.66 8 6 C8.66 6.33 9.32 6.66 10 7 C9.67 7.66 9.34 8.32 9 9 C1.375 8.125 1.375 8.125 -2 7 C-1.34 6.67 -0.68 6.34 0 6 C0 4.02 0 2.04 0 0 Z " fill="#F5F4F2" transform="translate(382,407)"/>
<path d="M0 0 C1.32 0.33 2.64 0.66 4 1 C4.10010827 4.50378937 3.72046209 7.57780506 3 11 C3 11.99 3 12.98 3 14 C2.67 13.34 2.34 12.68 2 12 C1.34 11.67 0.68 11.34 0 11 C-0.625 8.4375 -0.625 8.4375 -1 6 C-2.98 5.34 -4.96 4.68 -7 4 C-7 3.01 -7 2.02 -7 1 C-4.03 1.495 -4.03 1.495 -1 2 C-0.67 1.34 -0.34 0.68 0 0 Z " fill="#FDF1E1" transform="translate(404,384)"/>
<path d="M0 0 C0.33 0 0.66 0 1 0 C1 2.64 1 5.28 1 8 C2.11375 7.79375 3.2275 7.5875 4.375 7.375 C5.57125 7.25125 6.7675 7.1275 8 7 C10 9 10 9 10.1953125 11.3828125 C10.16050781 12.74019531 10.16050781 12.74019531 10.125 14.125 C10.10695313 15.03507812 10.08890625 15.94515625 10.0703125 16.8828125 C10.03550781 17.93082031 10.03550781 17.93082031 10 19 C9.34 19 8.68 19 8 19 C7.67 16.03 7.34 13.06 7 10 C5.35 10.33 3.7 10.66 2 11 C1.67 13.64 1.34 16.28 1 19 C0.67 19 0.34 19 0 19 C0 12.73 0 6.46 0 0 Z " fill="#1D2337" transform="translate(328,407)"/>
<path d="M0 0 C0.8652293 3.02132488 1.19192618 5.79667443 1.25 8.9375 C1.28867187 10.18853516 1.28867187 10.18853516 1.328125 11.46484375 C0.92359639 14.59030887 -0.35632035 16.32258448 -2 19 C-2.79497722 21.41683709 -3.52195429 23.85686583 -4.1875 26.3125 C-4.53167969 27.56675781 -4.87585938 28.82101563 -5.23046875 30.11328125 C-5.48441406 31.06589844 -5.73835938 32.01851563 -6 33 C-7.20220203 29.46905698 -6.79532349 26.87101018 -6.0625 23.25 C-5.86785156 22.26515625 -5.67320312 21.2803125 -5.47265625 20.265625 C-5.23869141 19.14414063 -5.23869141 19.14414063 -5 18 C-4.34 18 -3.68 18 -3 18 C-2.86722656 16.95199219 -2.73445313 15.90398437 -2.59765625 14.82421875 C-2.41942765 13.44529222 -2.24103359 12.06638707 -2.0625 10.6875 C-1.93198242 9.65206055 -1.93198242 9.65206055 -1.79882812 8.59570312 C-1.40789865 5.59857712 -0.9584996 2.87549881 0 0 Z " fill="#7E899A" transform="translate(419,226)"/>
<path d="M0 0 C1.63158445 6.09559952 1.10802808 11.02725376 -1 17 C-1.66 17.33 -2.32 17.66 -3 18 C-3.66 17.67 -4.32 17.34 -5 17 C-5.33 17.99 -5.66 18.98 -6 20 C-6.66 20 -7.32 20 -8 20 C-7.38880819 16.89596969 -6.362825 14.83562998 -4.5625 12.25 C-1.95495404 8.24070968 -0.9183012 4.67498791 0 0 Z " fill="#344259" transform="translate(135,254)"/>
<path d="M0 0 C2 2 2 2 2.1953125 5.0390625 C2.17210937 6.22242188 2.14890625 7.40578125 2.125 8.625 C2.10695313 9.81351562 2.08890625 11.00203125 2.0703125 12.2265625 C2.04710937 13.14179688 2.02390625 14.05703125 2 15 C0.35 15 -1.3 15 -3 15 C-1.68 14.67 -0.36 14.34 1 14 C1 11.03 1 8.06 1 5 C0.34 5 -0.32 5 -1 5 C-1 4.34 -1 3.68 -1 3 C-3.97 3 -6.94 3 -10 3 C-9.67 2.01 -9.34 1.02 -9 0 C-5.88135455 -1.55932272 -3.33704665 -0.65549131 0 0 Z " fill="#E0A16E" transform="translate(371,383)"/>
<path d="M0 0 C2.5 0.125 2.5 0.125 3.5 1.125 C3.625 4.125 3.625 4.125 3.5 7.125 C2.5 8.125 2.5 8.125 0 8.25 C-2.5 8.125 -2.5 8.125 -3.5 7.125 C-3.625 4.125 -3.625 4.125 -3.5 1.125 C-2.5 0.125 -2.5 0.125 0 0 Z " fill="#EFF4F6" transform="translate(443.5,415.875)"/>
<path d="M0 0 C6.0546875 -0.1953125 6.0546875 -0.1953125 8 0 C10 2 10 2 10.1953125 4.3828125 C10.17210937 5.28773438 10.14890625 6.19265625 10.125 7.125 C10.10695313 8.03507812 10.08890625 8.94515625 10.0703125 9.8828125 C10.04710937 10.58148438 10.02390625 11.28015625 10 12 C9.34 12 8.68 12 8 12 C7.67 9.03 7.34 6.06 7 3 C5.35 3.33 3.7 3.66 2 4 C1.67 6.64 1.34 9.28 1 12 C0.67 12 0.34 12 0 12 C0 8.04 0 4.08 0 0 Z " fill="#2F384C" transform="translate(380,414)"/>
<path d="M0 0 C0.66 0 1.32 0 2 0 C2 0.99 2 1.98 2 3 C3.32 3 4.64 3 6 3 C6 3.66 6 4.32 6 5 C4.68 5 3.36 5 2 5 C2 7.64 2 10.28 2 13 C3.32 13 4.64 13 6 13 C6 13.66 6 14.32 6 15 C4.33388095 15.042721 2.66617115 15.04063832 1 15 C0 14 0 14 -0.09765625 11.93359375 C-0.08025391 10.69802734 -0.08025391 10.69802734 -0.0625 9.4375 C-0.05347656 8.61121094 -0.04445313 7.78492188 -0.03515625 6.93359375 C-0.02355469 6.29550781 -0.01195312 5.65742188 0 5 C-0.66 5 -1.32 5 -2 5 C-2 4.34 -2 3.68 -2 3 C-1.34 3 -0.68 3 0 3 C0 2.01 0 1.02 0 0 Z " fill="#283449" transform="translate(394,411)"/>
<path d="M0 0 C6.46153846 0.46153846 6.46153846 0.46153846 9 3 C9 4.32 9 5.64 9 7 C5.7 6.34 2.4 5.68 -1 5 C-1.33 4.01 -1.66 3.02 -2 2 C-1.34 1.34 -0.68 0.68 0 0 Z " fill="#717A89" transform="translate(283,414)"/>
<path d="M0 0 C0.33 1.32 0.66 2.64 1 4 C-2.63 4 -6.26 4 -10 4 C-9.67 2.68 -9.34 1.36 -9 0 C-5.93109813 -1.53445094 -3.29905734 -0.54984289 0 0 Z " fill="#394052" transform="translate(266,415)"/>
<path d="M0 0 C2 2 2 2 2.4375 4.625 C1.84875934 9.16671366 -0.02820722 12.52769475 -3 16 C-5.171875 17.234375 -5.171875 17.234375 -7 18 C-7 16.68 -7 15.36 -7 14 C-6.37609375 13.79632813 -5.7521875 13.59265625 -5.109375 13.3828125 C-2.05854675 11.38282509 -1.99476154 9.37537926 -1.25 5.875 C-1.00765625 4.77929688 -0.7653125 3.68359375 -0.515625 2.5546875 C-0.34546875 1.71164063 -0.1753125 0.86859375 0 0 Z " fill="#2F3D54" transform="translate(577,248)"/>
<path d="M0 0 C0.33 0.66 0.66 1.32 1 2 C2.65 2 4.3 2 6 2 C6.33 3.65 6.66 5.3 7 7 C4.1875 7.625 4.1875 7.625 1 8 C0.01 7.34 -0.98 6.68 -2 6 C-1.125 1.125 -1.125 1.125 0 0 Z " fill="#858D9B" transform="translate(296,419)"/>
<path d="M0 0 C1.67542976 0.28604898 3.34385343 0.61781233 5 1 C5 3.97 5 6.94 5 10 C3.68 9.01 2.36 8.02 1 7 C0.34 7.66 -0.32 8.32 -1 9 C-1.09765625 2.84765625 -1.09765625 2.84765625 -1 1 C-0.67 0.67 -0.34 0.34 0 0 Z " fill="#E5E9EE" transform="translate(331,416)"/>
<path d="M0 0 C0 1.65 0 3.3 0 5 C-2.31 5 -4.62 5 -7 5 C-7 4.01 -7 3.02 -7 2 C-7.99 2.33 -8.98 2.66 -10 3 C-10 2.34 -10 1.68 -10 1 C-6.1496895 -1.56687367 -4.41430237 -0.83288724 0 0 Z " fill="#DB9558" transform="translate(332,383)"/>
<path d="M0 0 C2.97 0.33 5.94 0.66 9 1 C5 3 5 3 2 3 C2 3.99 2 4.98 2 6 C4.64 5.67 7.28 5.34 10 5 C9.67 5.99 9.34 6.98 9 8 C6.69 8.33 4.38 8.66 2 9 C-0.29013653 5.5647952 -0.17842973 4.014669 0 0 Z " fill="#242B40" transform="translate(402,418)"/>
<path d="M0 0 C0.99 0.66 1.98 1.32 3 2 C3 3.65 3 5.3 3 7 C-0.63 7 -4.26 7 -8 7 C-8 5.35 -8 3.7 -8 2 C-7.67 2.66 -7.34 3.32 -7 4 C-4.69 4 -2.38 4 0 4 C0 2.68 0 1.36 0 0 Z " fill="#DB9357" transform="translate(332,384)"/>
<path d="M0 0 C0.33 0.66 0.66 1.32 1 2 C-4.77880184 7.93087558 -4.77880184 7.93087558 -9.3125 8.1875 C-12.75981429 8.01221283 -14.93022908 7.48837378 -18 6 C-17.34 5.01 -16.68 4.02 -16 3 C-15.34 3.66 -14.68 4.32 -14 5 C-11.34462628 5.56520003 -8.70855287 5.73788198 -6 6 C-6 5.34 -6 4.68 -6 4 C-4.03852126 2.61061923 -2.03833424 1.2739589 0 0 Z " fill="#FDF1DF" transform="translate(604,255)"/>
<path d="M0 0 C0.33 0 0.66 0 1 0 C2.5912689 4.873261 3.21192221 8.80790596 3 14 C2.01 14.33 1.02 14.66 0 15 C-1.625 12.75 -1.625 12.75 -3 10 C-2.25 8.0625 -2.25 8.0625 -1 6 C-0.61709538 4.00889599 -0.27395385 2.00899487 0 0 Z " fill="#E0E4EA" transform="translate(253,410)"/>
<path d="M0 0 C0.66 0 1.32 0 2 0 C2.125 3.375 2.125 3.375 2 7 C-0.25900493 9.25900493 -0.94183075 9.34458029 -4 9.6875 C-4.70125 9.77386719 -5.4025 9.86023438 -6.125 9.94921875 C-8 10 -8 10 -10 9 C-10 8.01 -10 7.02 -10 6 C-6.37 6 -2.74 6 1 6 C0.67 4.02 0.34 2.04 0 0 Z " fill="#FDECD2" transform="translate(334,385)"/>
<path d="M0 0 C0.99 0 1.98 0 3 0 C2.67 1.32 2.34 2.64 2 4 C2.66 4 3.32 4 4 4 C4.93065133 6.60582371 5.14917407 7.64198224 4.0625 10.25 C3.711875 10.8275 3.36125 11.405 3 12 C3.66 12 4.32 12 5 12 C4.67 13.65 4.34 15.3 4 17 C0.28343453 13.28343453 0.0533414 7.52022996 -0.125 2.4375 C-0.08375 1.633125 -0.0425 0.82875 0 0 Z " fill="#2E3E57" transform="translate(274,167)"/>
<path d="M0 0 C0.33 0 0.66 0 1 0 C1.33 5.61 1.66 11.22 2 17 C0.02 17.33 -1.96 17.66 -4 18 C-3.6596875 16.3603125 -3.6596875 16.3603125 -3.3125 14.6875 C-2.59853617 11.09468727 -2.59853617 11.09468727 -4.4375 9.0625 C-4.953125 8.711875 -5.46875 8.36125 -6 8 C-5.01 7.67 -4.02 7.34 -3 7 C-2.01 7.99 -1.02 8.98 0 10 C0 6.7 0 3.4 0 0 Z " fill="#CFD8E0" transform="translate(217,408)"/>
<path d="M0 0 C0.33 0.99 0.66 1.98 1 3 C1.66 3 2.32 3 3 3 C3 3.66 3 4.32 3 5 C3.66 5 4.32 5 5 5 C5.33 11.27 5.66 17.54 6 24 C4.24632763 21.36949145 3.61808596 20.06925023 2.9296875 17.12890625 C2.75566406 16.38962891 2.58164062 15.65035156 2.40234375 14.88867188 C2.22832031 14.12103516 2.05429687 13.35339844 1.875 12.5625 C1.69324219 11.79873047 1.51148438 11.03496094 1.32421875 10.24804688 C0.49229538 6.65451323 0 3.73619355 0 0 Z " fill="#5F6B7E" transform="translate(280,197)"/>
<path d="M0 0 C0.33 0 0.66 0 1 0 C1.0270043 1.45823212 1.04639787 2.91660675 1.0625 4.375 C1.07410156 5.18710938 1.08570313 5.99921875 1.09765625 6.8359375 C1 9 1 9 0 11 C0 12.11375 0 13.2275 0 14.375 C0 17.24934276 -0.1388051 19.30876593 -1 22 C-1.66 22 -2.32 22 -3 22 C-3 23.98 -3 25.96 -3 28 C-3.33 28 -3.66 28 -4 28 C-4.2336948 21.69024029 -3.36173059 16.14618943 -2 10 C-1.62106176 8.12579195 -1.24592304 6.25081078 -0.875 4.375 C-0.58333333 2.91666667 -0.29166667 1.45833333 0 0 Z " fill="#525E73" transform="translate(192,154)"/>
<path d="M0 0 C0.33 0.66 0.66 1.32 1 2 C1.66 2.33 2.32 2.66 3 3 C2.67 4.32 2.34 5.64 2 7 C0.68 7.33 -0.64 7.66 -2 8 C-1.67 7.01 -1.34 6.02 -1 5 C-1.99 5.495 -1.99 5.495 -3 6 C-4.99960012 6.039992 -7.00047242 6.04346799 -9 6 C-9 5.01 -9 4.02 -9 3 C-6.03 3 -3.06 3 0 3 C0 2.01 0 1.02 0 0 Z " fill="#E8F0F4" transform="translate(292,418)"/>
<path d="M0 0 C0.33 0 0.66 0 1 0 C1.05384521 2.29141286 1.09272087 4.58318188 1.125 6.875 C1.14820313 8.15117187 1.17140625 9.42734375 1.1953125 10.7421875 C1 14 1 14 -1 16 C-3.625 15.625 -3.625 15.625 -6 15 C-3.25 10.125 -3.25 10.125 -1 9 C-0.53348793 6.87423218 -0.53348793 6.87423218 -0.375 4.4375 C-0.30023438 3.61121094 -0.22546875 2.78492188 -0.1484375 1.93359375 C-0.09945312 1.29550781 -0.05046875 0.65742188 0 0 Z " fill="#EAEEF4" transform="translate(228,408)"/>
<path d="M0 0 C3.625 0.375 3.625 0.375 7 1 C7 2.32 7 3.64 7 5 C4.36 5 1.72 5 -1 5 C-1.33 4.01 -1.66 3.02 -2 2 C-1.34 1.34 -0.68 0.68 0 0 Z " fill="#363D4F" transform="translate(368,414)"/>
<path d="M0 0 C1.98 0 3.96 0 6 0 C6.38218767 1.65614657 6.71395102 3.32457024 7 5 C6 6 6 6 2.9375 6.0625 C1.4834375 6.0315625 1.4834375 6.0315625 0 6 C0 4.02 0 2.04 0 0 Z " fill="#D7DEE6" transform="translate(244,410)"/>
<path d="M0 0 C1.98 0 3.96 0 6 0 C6.38218767 1.65614657 6.71395102 3.32457024 7 5 C6 6 6 6 2.9375 6.0625 C1.4834375 6.0315625 1.4834375 6.0315625 0 6 C0 4.02 0 2.04 0 0 Z " fill="#D6DDE6" transform="translate(177,410)"/>
<path d="M0 0 C2.72341486 2.72341486 2.81126081 5.05630406 3.5625 8.8125 C3.81128906 10.03582031 4.06007812 11.25914062 4.31640625 12.51953125 C4.54199219 13.66808594 4.76757812 14.81664062 5 16 C5.23589844 16.91136719 5.47179687 17.82273438 5.71484375 18.76171875 C6 21 6 21 4 24 C3.32338 21.31466436 2.65853879 18.627275 2 15.9375 C1.80921875 15.18533203 1.6184375 14.43316406 1.421875 13.65820312 C0.2858904 8.97226664 -0.20486266 4.82067454 0 0 Z " fill="#4C596D" transform="translate(227,174)"/>
<path d="M0 0 C1.984375 1.05078125 1.984375 1.05078125 4 3 C4.390625 6.35546875 4.390625 6.35546875 4.25 10.1875 C4.21390625 11.45980469 4.1778125 12.73210937 4.140625 14.04296875 C4.09421875 15.01878906 4.0478125 15.99460937 4 17 C4.66 17 5.32 17 6 17 C5.67 19.31 5.34 21.62 5 24 C4.67 24 4.34 24 4 24 C3.32882733 20.56336386 2.66383929 17.12555959 2 13.6875 C1.80921875 12.71103516 1.6184375 11.73457031 1.421875 10.72851562 C1.24140625 9.79072266 1.0609375 8.85292969 0.875 7.88671875 C0.70742187 7.02264404 0.53984375 6.15856934 0.3671875 5.26831055 C0 3 0 3 0 0 Z " fill="#414D63" transform="translate(248,274)"/>
<path d="M0 0 C1.96875 1.15625 1.96875 1.15625 4 3 C4.53125 5.59375 4.53125 5.59375 4.5 8.5 C4.5103125 9.4590625 4.520625 10.418125 4.53125 11.40625 C4 14 4 14 1.96875 15.84375 C1.3190625 16.2253125 0.669375 16.606875 0 17 C0 14 0 14 1 13 C1.23075082 11.65252916 1.41153063 10.29622435 1.5625 8.9375 C1.7790625 6.9884375 1.7790625 6.9884375 2 5 C1.34 4.67 0.68 4.34 0 4 C0 2.68 0 1.36 0 0 Z " fill="#29374B" transform="translate(577,162)"/>
<path d="M0 0 C5.30014818 -0.50477602 7.81965318 0.79182686 12 4 C13 5 13 5 13.09765625 7.50390625 C13.08605469 8.51324219 13.07445312 9.52257812 13.0625 10.5625 C13.05347656 11.57441406 13.04445313 12.58632812 13.03515625 13.62890625 C13.02355469 14.41136719 13.01195312 15.19382813 13 16 C12.34 16.33 11.68 16.66 11 17 C11 13.7 11 10.4 11 7 C10.34 6.67 9.68 6.34 9 6 C9 5.01 9 4.02 9 3 C7.68 3.33 6.36 3.66 5 4 C5 3.01 5 2.02 5 1 C3.35 1 1.7 1 0 1 C0 0.67 0 0.34 0 0 Z " fill="#DB9255" transform="translate(602,158)"/>
<path d="M0 0 C6.31506393 2.81922497 10.98601602 6.25271729 16 11 C15.01 11.495 15.01 11.495 14 12 C13.31292969 11.4946875 12.62585938 10.989375 11.91796875 10.46875 C10.56638672 9.49421875 10.56638672 9.49421875 9.1875 8.5 C8.29417969 7.8503125 7.40085937 7.200625 6.48046875 6.53125 C4.06037916 4.73735342 4.06037916 4.73735342 1 5 C0.67 3.35 0.34 1.7 0 0 Z " fill="#27344A" transform="translate(448,25)"/>
<path d="M0 0 C2.97 0 5.94 0 9 0 C8.34 2.97 7.68 5.94 7 9 C6.34 7.68 5.68 6.36 5 5 C2.46229997 3.71745356 2.46229997 3.71745356 0 3 C0 2.01 0 1.02 0 0 Z " fill="#CED8E2" transform="translate(272,416)"/>
<path d="M0 0 C1.98 0 3.96 0 6 0 C7 3 7 3 6 6 C4.02 6 2.04 6 0 6 C0 4.02 0 2.04 0 0 Z " fill="#FDFCF7" transform="translate(381,387)"/>
<path d="M0 0 C2.34087842 0.27539746 4.67402489 0.6186926 7 1 C8.258125 0.979375 9.51625 0.95875 10.8125 0.9375 C14 1 14 1 16 3 C10.46656517 5.76671741 3.60710027 3.60202865 -2 2 C-1.34 1.34 -0.68 0.68 0 0 Z " fill="#2B394E" transform="translate(367,337)"/>
<path d="M0 0 C-0.99 0 -1.98 0 -3 0 C-3.33 0.99 -3.66 1.98 -4 3 C-5.91583647 3.1958009 -7.83272539 3.38132214 -9.75 3.5625 C-11.35101563 3.71912109 -11.35101563 3.71912109 -12.984375 3.87890625 C-15.64141204 3.98560074 -17.49960572 3.81930395 -20 3 C-17.41932437 2.30081695 -14.83627153 1.61538951 -12.25 0.9375 C-11.15558594 0.63875977 -11.15558594 0.63875977 -10.0390625 0.33398438 C-6.28968956 -0.63744407 -3.69725762 -1.15449387 0 0 Z " fill="#D6DDE5" transform="translate(463,294)"/>
<path d="M0 0 C0.33 1.32 0.66 2.64 1 4 C-0.625 5.5625 -0.625 5.5625 -3 7 C-6.01733125 6.7586135 -8.29283042 6.35358479 -11 5 C-10.67 4.01 -10.34 3.02 -10 2 C-8.3603125 2.2475 -8.3603125 2.2475 -6.6875 2.5 C-3.12474127 3.06718184 -3.12474127 3.06718184 0 3 C0 2.01 0 1.02 0 0 Z " fill="#D8955C" transform="translate(404,391)"/>
<path d="M0 0 C0.66 0.33 1.32 0.66 2 1 C2.08114106 2.77007714 2.13925505 4.54122098 2.1875 6.3125 C2.22230469 7.29863281 2.25710938 8.28476563 2.29296875 9.30078125 C2 12 2 12 0.48828125 13.85546875 C-0.00285156 14.23316406 -0.49398437 14.61085938 -1 15 C-1.33 14.34 -1.66 13.68 -2 13 C-1.67 12.34 -1.34 11.68 -1 11 C-0.95653201 9.00047242 -0.960008 6.99960012 -1 5 C-1 1 -1 1 0 0 Z " fill="#202F4C" transform="translate(595,82)"/>
<path d="M0 0 C-0.7734375 0.185625 -0.7734375 0.185625 -1.5625 0.375 C-2.7690625 0.684375 -2.7690625 0.684375 -4 1 C-5.175625 1.2475 -6.35125 1.495 -7.5625 1.75 C-11.54697952 3.19890164 -12.16171262 4.32342523 -14 8 C-14.66 8 -15.32 8 -16 8 C-16.33 8.99 -16.66 9.98 -17 11 C-16.49614177 6.59124045 -15.0886933 4.17449034 -12 1 C-7.82588619 -1.48190551 -4.66320188 -0.91435331 0 0 Z " fill="#DD8E4C" transform="translate(603,239)"/>
<path d="M0 0 C0.66 0.33 1.32 0.66 2 1 C-0.75 5.875 -0.75 5.875 -3 7 C-3 10.3 -3 13.6 -3 17 C-3.66 17 -4.32 17 -5 17 C-5.76681614 6.31569507 -5.76681614 6.31569507 -3.88671875 3.08984375 C-2.5 1.75 -2.5 1.75 0 0 Z " fill="#DC8D49" transform="translate(600,159)"/>
<path d="M0 0 C0.33 0.66 0.66 1.32 1 2 C3.64 2 6.28 2 9 2 C9 2.66 9 3.32 9 4 C7.906875 3.979375 6.81375 3.95875 5.6875 3.9375 C2.05615809 3.81455548 2.05615809 3.81455548 -1 5 C-1.33 5.66 -1.66 6.32 -2 7 C-2.103125 6.360625 -2.20625 5.72125 -2.3125 5.0625 C-2.539375 4.381875 -2.76625 3.70125 -3 3 C-3.99 2.67 -4.98 2.34 -6 2 C-2.25 0 -2.25 0 0 0 Z " fill="#FCF2E5" transform="translate(323,379)"/>
<path d="M0 0 C0.66 0.33 1.32 0.66 2 1 C1.67 1.99 1.34 2.98 1 4 C-1.0625 4.6875 -1.0625 4.6875 -3 5 C-3 5.66 -3 6.32 -3 7 C-4.32 7 -5.64 7 -7 7 C-7 5.35 -7 3.7 -7 2 C-4.69 2 -2.38 2 0 2 C0 1.34 0 0.68 0 0 Z " fill="#F5F6F7" transform="translate(320,376)"/>
<path d="M0 0 C1.98 0 3.96 0 6 0 C6 0.66 6 1.32 6 2 C5.01 2.33 4.02 2.66 3 3 C2.67 5.97 2.34 8.94 2 12 C1.34 12 0.68 12 0 12 C0 8.04 0 4.08 0 0 Z " fill="#384251" transform="translate(308,414)"/>
<path d="M0 0 C1.98 0 3.96 0 6 0 C6 0.66 6 1.32 6 2 C5.01 2.33 4.02 2.66 3 3 C2.67 5.97 2.34 8.94 2 12 C1.34 12 0.68 12 0 12 C0 8.04 0 4.08 0 0 Z " fill="#394254" transform="translate(416,414)"/>
<path d="M0 0 C0.66 0.33 1.32 0.66 2 1 C1.01 2.485 1.01 2.485 0 4 C-0.24219315 6.97449608 -0.24219315 6.97449608 -0.125 10.1875 C-0.10695313 11.27417969 -0.08890625 12.36085937 -0.0703125 13.48046875 C-0.04710937 14.31191406 -0.02390625 15.14335937 0 16 C-0.99 15.67 -1.98 15.34 -3 15 C-4.50026826 9.54447907 -3.3783354 5.93327986 -1 1 C-0.67 0.67 -0.34 0.34 0 0 Z " fill="#FBE7D0" transform="translate(587,242)"/>
<path d="M0 0 C0.33 0 0.66 0 1 0 C1 1.65 1 3.3 1 5 C1.66 5.33 2.32 5.66 3 6 C1.68 10.29 0.36 14.58 -1 19 C-1.33 19 -1.66 19 -2 19 C-2.24794402 12.4294834 -1.32388229 6.43028541 0 0 Z " fill="#465266" transform="translate(140,226)"/>
<path d="M0 0 C1.98 0 3.96 0 6 0 C6 0.66 6 1.32 6 2 C5.01 2.33 4.02 2.66 3 3 C2.67 5.97 2.34 8.94 2 12 C1.34 12 0.68 12 0 12 C0 8.04 0 4.08 0 0 Z " fill="#353D4D" transform="translate(453,414)"/>
<path d="M0 0 C1.32 0.33 2.64 0.66 4 1 C4.625 2.8125 4.625 2.8125 5 5 C4.01 6.485 4.01 6.485 3 8 C2.01 8 1.02 8 0 8 C0 5.36 0 2.72 0 0 Z " fill="#E4EAF0" transform="translate(244,418)"/>
<path d="M0 0 C0.66 0 1.32 0 2 0 C2 3.96 2 7.92 2 12 C0.68 11.34 -0.64 10.68 -2 10 C-2 7.36 -2 4.72 -2 2 C-1.34 2 -0.68 2 0 2 C0 1.34 0 0.68 0 0 Z " fill="#D2DBE2" transform="translate(451,414)"/>
<path d="M0 0 C2.875 0.6875 2.875 0.6875 6 2 C7.25 4.5 7.25 4.5 8 7 C8.66 7.66 9.32 8.32 10 9 C9.01 9.33 8.02 9.66 7 10 C6.01524786 8.90081184 5.03739527 7.7954398 4.0625 6.6875 C3.51722656 6.07261719 2.97195312 5.45773437 2.41015625 4.82421875 C1 3 1 3 0 0 Z " fill="#24324A" transform="translate(78,283)"/>
<path d="M0 0 C3.1875 -0.3125 3.1875 -0.3125 7 0 C9.9375 2.5 9.9375 2.5 12 5 C11.01 5.495 11.01 5.495 10 6 C9.34 5.67 8.68 5.34 8 5 C8 4.34 8 3.68 8 3 C6.02 3.33 4.04 3.66 2 4 C1.34 2.68 0.68 1.36 0 0 Z " fill="#24334B" transform="translate(148,215)"/>
<path d="M0 0 C1.10153804 3.30461413 0.95317786 3.98668832 -0.1875 7.125 C-0.42855469 7.82882813 -0.66960937 8.53265625 -0.91796875 9.2578125 C-2 11 -2 11 -4.11328125 11.7421875 C-4.73589844 11.82726562 -5.35851562 11.91234375 -6 12 C-4.81819916 6.97734643 -3.55007718 3.9050849 0 0 Z " fill="#3D4B60" transform="translate(207,100)"/>
<path d="M0 0 C0.66 0.33 1.32 0.66 2 1 C1.67 3.64 1.34 6.28 1 9 C1.66 9 2.32 9 3 9 C2.67 9.66 2.34 10.32 2 11 C0.68 10.34 -0.64 9.68 -2 9 C-2 6.36 -2 3.72 -2 1 C-1.34 0.67 -0.68 0.34 0 0 Z " fill="#DE8B47" transform="translate(323,385)"/>
<path d="M0 0 C0.99 0.33 1.98 0.66 3 1 C4.13016601 6.02296004 3.77916092 9.97874074 3 15 C1.08697693 11.73386305 0.64325339 9.00554752 0.375 5.25 C0.30023438 4.26515625 0.22546875 3.2803125 0.1484375 2.265625 C0.09945313 1.51796875 0.05046875 0.7703125 0 0 Z " fill="#3C4A60" transform="translate(289,231)"/>
<path d="M0 0 C6.27 0.33 12.54 0.66 19 1 C19 1.33 19 1.66 19 2 C9.595 2.495 9.595 2.495 0 3 C0 2.01 0 1.02 0 0 Z " fill="#4D5A6E" transform="translate(480,188)"/>
<path d="M0 0 C2.93200474 2.85276137 5.64315404 5.65079784 8 9 C6.68 9 5.36 9 4 9 C4 8.34 4 7.68 4 7 C2.35 7 0.7 7 -1 7 C-0.01 6.67 0.98 6.34 2 6 C2 5.34 2 4.68 2 4 C1.01 3.67 0.02 3.34 -1 3 C-0.67 2.01 -0.34 1.02 0 0 Z " fill="#E2E8EE" transform="translate(316,308)"/>
<path d="M0 0 C-3.63485777 2.27178611 -7.74300438 3.09977333 -12 3 C-14.25 2.015625 -14.25 2.015625 -16 1 C-10.26696495 -0.57300962 -5.84340558 -1.24327778 0 0 Z " fill="#233249" transform="translate(503,258)"/>
<path d="M0 0 C0.66 0.99 1.32 1.98 2 3 C0.35 3.33 -1.3 3.66 -3 4 C-3 4.99 -3 5.98 -3 7 C-3.66 7 -4.32 7 -5 7 C-5 6.34 -5 5.68 -5 5 C-7.97 4.67 -10.94 4.34 -14 4 C-14 3.01 -14 2.02 -14 1 C-13.01 1.33 -12.02 1.66 -11 2 C-9.48233461 2.11632729 -7.9595654 2.17496239 -6.4375 2.1875 C-5.65246094 2.20167969 -4.86742187 2.21585938 -4.05859375 2.23046875 C-1.7756455 2.19167509 -1.7756455 2.19167509 0 0 Z " fill="#FDECD7" transform="translate(611,177)"/>
<path d="M0 0 C0.53625 0.350625 1.0725 0.70125 1.625 1.0625 C5.62019269 2.63954975 9.05410025 1.31529992 13 0 C12.4375 1.9375 12.4375 1.9375 11 4 C7.23363485 5.04621254 5.06751372 5.57481508 1.5625 3.6875 C0 2 0 2 0 0 Z " fill="#343B4A" transform="translate(350,422)"/>
<path d="M0 0 C0 2.64 0 5.28 0 8 C-1.98 7.34 -3.96 6.68 -6 6 C-3.4 0 -3.4 0 0 0 Z " fill="#F8FCFC" transform="translate(217,410)"/>
<path d="M0 0 C0 0.66 0 1.32 0 2 C-1.27875 2.309375 -2.5575 2.61875 -3.875 2.9375 C-6.10101675 3.47605244 -7.94739999 3.9737 -10 5 C-9.67 3.35 -9.34 1.7 -9 0 C-5.52176885 -1.15941038 -3.54104422 -0.70820884 0 0 Z " fill="#FBEAD0" transform="translate(370,386)"/>
<path d="M0 0 C-0.33 0.66 -0.66 1.32 -1 2 C-1.66 1.67 -2.32 1.34 -3 1 C-2.67 2.65 -2.34 4.3 -2 6 C-2.33 6 -2.66 6 -3 6 C-3.33 9.3 -3.66 12.6 -4 16 C-4.33 16 -4.66 16 -5 16 C-5.09087891 14.62714844 -5.09087891 14.62714844 -5.18359375 13.2265625 C-5.30927734 11.44378906 -5.30927734 11.44378906 -5.4375 9.625 C-5.51871094 8.44164062 -5.59992188 7.25828125 -5.68359375 6.0390625 C-5.81084936 3.08481099 -5.81084936 3.08481099 -7 1 C-4 0 -4 0 0 0 Z " fill="#FBE5CC" transform="translate(309,382)"/>
<path d="M0 0 C2.475 0.99 2.475 0.99 5 2 C4.67 2.99 4.34 3.98 4 5 C4.99 5 5.98 5 7 5 C7.66 6.65 8.32 8.3 9 10 C8.01 10 7.02 10 6 10 C4.39453125 8.3203125 4.39453125 8.3203125 2.8125 6.125 C2.01779297 5.04605469 2.01779297 5.04605469 1.20703125 3.9453125 C0 2 0 2 0 0 Z " fill="#2D3A52" transform="translate(309,297)"/>
<path d="M0 0 C2.5 0.8125 2.5 0.8125 5 3 C5.63007167 6.71292233 5.69576548 10.29504883 5 14 C4.01 14.66 3.02 15.32 2 16 C2.165 15.484375 2.33 14.96875 2.5 14.4375 C3.15049 11.26636124 3.0620734 8.22781666 3 5 C2.34 5 1.68 5 1 5 C0.67 3.35 0.34 1.7 0 0 Z " fill="#D8853E" transform="translate(619,83)"/>
<path d="M0 0 C2.31 0 4.62 0 7 0 C5.1875 3 5.1875 3 3 6 C2.01 6 1.02 6 0 6 C0 4.02 0 2.04 0 0 Z " fill="#F3F4FA" transform="translate(192,418)"/>
<path d="M0 0 C2.93200474 2.85276137 5.64315404 5.65079784 8 9 C6.68 9.33 5.36 9.66 4 10 C3.67 9.01 3.34 8.02 3 7 C2.34 6.67 1.68 6.34 1 6 C0.375 2.9375 0.375 2.9375 0 0 Z " fill="#324157" transform="translate(338,284)"/>
<path d="M0 0 C5.94 0.99 5.94 0.99 12 2 C12 2.33 12 2.66 12 3 C7.71 3.66 3.42 4.32 -1 5 C-0.67 3.35 -0.34 1.7 0 0 Z " fill="#2C394F" transform="translate(457,289)"/>
<path d="M0 0 C-6.435 2.97 -6.435 2.97 -13 6 C-13.66 5.34 -14.32 4.68 -15 4 C-13.25705322 3.13153169 -11.50531337 2.28069373 -9.75 1.4375 C-8.77546875 0.96183594 -7.8009375 0.48617187 -6.796875 -0.00390625 C-4 -1 -4 -1 0 0 Z " fill="#364357" transform="translate(95,63)"/>
<path d="M0 0 C1.875 0.5625 1.875 0.5625 4 2 C5.25 5.625 5.25 5.625 6 9 C5.01 9.33 4.02 9.66 3 10 C0 3.375 0 3.375 0 0 Z " fill="#D89056" transform="translate(306,383)"/>
<path d="M0 0 C1.65 0 3.3 0 5 0 C4.57847656 0.4125 4.15695312 0.825 3.72265625 1.25 C-0.59202022 5.79817661 -1.7803167 8.73902584 -2 15 C-2.33 15 -2.66 15 -3 15 C-3.02698189 13.37509046 -3.04638757 11.75005367 -3.0625 10.125 C-3.07410156 9.22007812 -3.08570313 8.31515625 -3.09765625 7.3828125 C-3 5 -3 5 -2 3 C-1.34 3 -0.68 3 0 3 C0 2.01 0 1.02 0 0 Z " fill="#FEECD4" transform="translate(272,375)"/>
<path d="M0 0 C0.99 0.33 1.98 0.66 3 1 C2.67 1.66 2.34 2.32 2 3 C2.66 3 3.32 3 4 3 C4.33 3.99 4.66 4.98 5 6 C1.7 5.67 -1.6 5.34 -5 5 C-5 4.34 -5 3.68 -5 3 C-3.35 3 -1.7 3 0 3 C0 2.01 0 1.02 0 0 Z " fill="#FCEEDD" transform="translate(282,370)"/>
<path d="M0 0 C0.99773438 0.02320312 1.99546875 0.04640625 3.0234375 0.0703125 C4.52777344 0.09738281 4.52777344 0.09738281 6.0625 0.125 C6.83335937 0.14820312 7.60421875 0.17140625 8.3984375 0.1953125 C8.3984375 0.8553125 8.3984375 1.5153125 8.3984375 2.1953125 C7.2021875 2.0921875 6.0059375 1.9890625 4.7734375 1.8828125 C1.28284071 1.85175737 -0.43880618 2.4338807 -3.1015625 4.6953125 C-3.9265625 5.5203125 -4.7515625 6.3453125 -5.6015625 7.1953125 C-4.51902891 0.33926643 -4.51902891 0.33926643 0 0 Z " fill="#FEF1DE" transform="translate(610.6015625,78.8046875)"/>
<path d="M0 0 C0.33 0.99 0.66 1.98 1 3 C0.34 3 -0.32 3 -1 3 C-0.938125 3.7425 -0.87625 4.485 -0.8125 5.25 C-1.03094296 8.45383006 -1.90250005 9.64031256 -4 12 C-4 9.03 -4 6.06 -4 3 C-2.68 2.67 -1.36 2.34 0 2 C0 1.34 0 0.68 0 0 Z " fill="#E1E8ED" transform="translate(422,414)"/>
<path d="M0 0 C1.98 0.99 1.98 0.99 4 2 C4 5.3 4 8.6 4 12 C3.34 12 2.68 12 2 12 C1.93941406 11.38511719 1.87882812 10.77023437 1.81640625 10.13671875 C1.73261719 9.32847656 1.64882813 8.52023437 1.5625 7.6875 C1.48128906 6.88699219 1.40007812 6.08648437 1.31640625 5.26171875 C1.04734307 2.83912821 1.04734307 2.83912821 0 0 Z " fill="#3D485C" transform="translate(334,414)"/>
<path d="M0 0 C0.87527344 -0.01417969 1.75054687 -0.02835937 2.65234375 -0.04296875 C5.0625 0.1875 5.0625 0.1875 8.0625 2.1875 C7.14017578 2.17009766 7.14017578 2.17009766 6.19921875 2.15234375 C4.98685547 2.13880859 4.98685547 2.13880859 3.75 2.125 C2.94949219 2.11339844 2.14898437 2.10179687 1.32421875 2.08984375 C-1.97764162 2.23241112 -3.59204672 2.84204672 -5.9375 5.1875 C-6.2675 3.8675 -6.5975 2.5475 -6.9375 1.1875 C-4.47380468 -0.04434766 -2.7480499 0.02017658 0 0 Z " fill="#FCEEDB" transform="translate(296.9375,380.8125)"/>
<path d="M0 0 C1.32 0 2.64 0 4 0 C4 0.66 4 1.32 4 2 C3.01 2 2.02 2 1 2 C1 5.3 1 8.6 1 12 C1.66 12.33 2.32 12.66 3 13 C2.01 13 1.02 13 0 13 C0 10.03 0 7.06 0 4 C-0.99 3.67 -1.98 3.34 -3 3 C-2.34 3 -1.68 3 -1 3 C-0.67 2.01 -0.34 1.02 0 0 Z " fill="#FCEAD4" transform="translate(379,370)"/>
<path d="M0 0 C0.33 0.99 0.66 1.98 1 3 C-1.20534761 6.26718165 -3.57124939 9.00911255 -7 11 C-7.99 10.67 -8.98 10.34 -10 10 C-9.52949219 9.61328125 -9.05898437 9.2265625 -8.57421875 8.828125 C-5.3182388 6.10469664 -2.34546467 3.58718126 0 0 Z " fill="#E2E9F0" transform="translate(145,287)"/>
<path d="M0 0 C2.1991413 4.39828259 2.51855059 7.18550592 3 12 C2.67 11.34 2.34 10.68 2 10 C1.01 10 0.02 10 -1 10 C-0.67 6.7 -0.34 3.4 0 0 Z " fill="#4F5B71" transform="translate(315,210)"/>
<path d="M0 0 C0.33 0 0.66 0 1 0 C1.33 2.31 1.66 4.62 2 7 C1.34 7 0.68 7 0 7 C0.061875 8.27875 0.12375 9.5575 0.1875 10.875 C0.29296875 13.0546875 0.29296875 13.0546875 0 15 C-0.99 15.66 -1.98 16.32 -3 17 C-2.48517081 11.147205 -1.54642808 5.6702363 0 0 Z " fill="#39485D" transform="translate(426,198)"/>
<path d="M0 0 C3.59147806 1.33397757 6.8843916 2.74983838 10 5 C10.8125 7.1875 10.8125 7.1875 11 9 C10.01 9 9.02 9 8 9 C6.70261912 7.54044651 5.41047035 6.07308598 4.20703125 4.53515625 C2.91620175 2.89342165 1.51539236 1.43563487 0 0 Z " fill="#2B3952" transform="translate(429,61)"/>
<path d="M0 0 C0.99 0.33 1.98 0.66 3 1 C4.23867161 3.61497339 5.08503983 6.25511949 6 9 C5.01 9 4.02 9 3 9 C1.68 6.36 0.36 3.72 -1 1 C-0.67 0.67 -0.34 0.34 0 0 Z " fill="#4D5266" transform="translate(248,417)"/>
<path d="M0 0 C0.99 0 1.98 0 3 0 C3.1875 2.375 3.1875 2.375 3 5 C2.01 5.66 1.02 6.32 0 7 C-0.99 6.01 -1.98 5.02 -3 4 C-1.6875 2 -1.6875 2 0 0 Z " fill="#F6F9FB" transform="translate(479,416)"/>
<path d="M0 0 C0.7425 0.185625 1.485 0.37125 2.25 0.5625 C4.94990963 0.99203108 6.44631077 0.85122974 9 0 C7.68 1.32 6.36 2.64 5 4 C4.34 3.67 3.68 3.34 3 3 C2.54625 3.495 2.0925 3.99 1.625 4.5 C0 6 0 6 -2 6 C-1.34 4.02 -0.68 2.04 0 0 Z " fill="#E1E5E9" transform="translate(441,301)"/>
<path d="M0 0 C2 3 2 3 2 6 C1.34 6 0.68 6 0 6 C0.33 10.29 0.66 14.58 1 19 C-1.3111349 15.53329764 -1.24298883 14.14345123 -1.1875 10.0625 C-1.18105469 9.02222656 -1.17460937 7.98195313 -1.16796875 6.91015625 C-1.02535748 4.43933308 -0.71031012 2.35822959 0 0 Z " fill="#404C62" transform="translate(167,288)"/>
<path d="M0 0 C0.33 0 0.66 0 1 0 C1.0809723 2.43816585 1.14046972 4.87364384 1.1875 7.3125 C1.22520508 8.34793945 1.22520508 8.34793945 1.26367188 9.40429688 C1.29296875 11.42578125 1.29296875 11.42578125 1 15 C0.01 15.99 -0.98 16.98 -2 18 C-1.34 12.06 -0.68 6.12 0 0 Z " fill="#556176" transform="translate(174,248)"/>
<path d="M0 0 C1.72357119 2.58535679 2.44735018 4.03811614 3.1875 6.9375 C3.36667969 7.60652344 3.54585938 8.27554688 3.73046875 8.96484375 C4.03268678 11.24680888 3.68756692 12.82026659 3 15 C2.34 14.67 1.68 14.34 1 14 C0.5859375 10.83984375 0.5859375 10.83984375 0.375 6.9375 C0.30023438 5.64714844 0.22546875 4.35679687 0.1484375 3.02734375 C0.09945313 2.02832031 0.05046875 1.02929688 0 0 Z " fill="#677285" transform="translate(321,235)"/>
<path d="M0 0 C2.4375 0.6875 2.4375 0.6875 5 2 C5.33 3.65 5.66 5.3 6 7 C1.05 5.02 1.05 5.02 -4 3 C-2.68 2.67 -1.36 2.34 0 2 C0 1.34 0 0.68 0 0 Z " fill="#FDF0DC" transform="translate(608,155)"/>
<path d="M0 0 C2.98096832 0.23847747 4.6142558 0.70492665 7.125 2.25 C6.795 2.91 6.465 3.57 6.125 4.25 C-1.5 3.375 -1.5 3.375 -4.875 2.25 C-2.875 0.25 -2.875 0.25 0 0 Z " fill="#DEE4ED" transform="translate(384.875,411.75)"/>
<path d="M0 0 C0.61875 0.639375 1.2375 1.27875 1.875 1.9375 C3.82597612 4.03883584 3.82597612 4.03883584 6 5 C6 5.66 6 6.32 6 7 C4.02 7.33 2.04 7.66 0 8 C0 5.36 0 2.72 0 0 Z " fill="#C4CAD4" transform="translate(329,407)"/>
<path d="M0 0 C1.98 0 3.96 0 6 0 C6 0.99 6 1.98 6 3 C4.02 3.33 2.04 3.66 0 4 C0 2.68 0 1.36 0 0 Z " fill="#FDE9CB" transform="translate(364,391)"/>
<path d="M0 0 C0.33 0 0.66 0 1 0 C1 2.97 1 5.94 1 9 C1.99 9 2.98 9 4 9 C2.84826645 11.46800047 1.95216435 13.04783565 0 15 C0 10.05 0 5.1 0 0 Z " fill="#DE8237" transform="translate(377,375)"/>
<path d="M0 0 C1.21236328 0.04060547 1.21236328 0.04060547 2.44921875 0.08203125 C3.06410156 0.11683594 3.67898438 0.15164063 4.3125 0.1875 C0.97916667 1.85416667 -2.35416667 3.52083333 -5.6875 5.1875 C-6.3475 4.5275 -7.0075 3.8675 -7.6875 3.1875 C-5.26849268 0.20484049 -3.789448 -0.16475861 0 0 Z " fill="#D98945" transform="translate(279.6875,375.8125)"/>
<path d="M0 0 C0.33 0 0.66 0 1 0 C1.22304441 1.74818591 1.4278645 3.49870323 1.625 5.25 C1.74101563 6.22453125 1.85703125 7.1990625 1.9765625 8.203125 C2.00112537 11.13429393 1.5312717 12.54528964 0 15 C-0.19601608 13.25093341 -0.38147403 11.50068154 -0.5625 9.75 C-0.66691406 8.77546875 -0.77132812 7.8009375 -0.87890625 6.796875 C-0.98974468 4.2368648 -0.77738092 2.41851841 0 0 Z " fill="#222E4B" transform="translate(59,177)"/>
<path d="M0 0 C0.66 0.33 1.32 0.66 2 1 C2.6328125 3.50390625 2.6328125 3.50390625 3.125 6.5625 C3.29257813 7.57441406 3.46015625 8.58632812 3.6328125 9.62890625 C3.75398437 10.41136719 3.87515625 11.19382812 4 12 C3.01 11.34 2.02 10.68 1 10 C1 8.68 1 7.36 1 6 C0.34 6 -0.32 6 -1 6 C-0.67 4.02 -0.34 2.04 0 0 Z " fill="#38465D" transform="translate(241,104)"/>
<path d="M0 0 C1.32 0.66 2.64 1.32 4 2 C1.6875 4.5 1.6875 4.5 -1 7 C-1.99 7 -2.98 7 -4 7 C-3.67 5.68 -3.34 4.36 -3 3 C-2.34 3 -1.68 3 -1 3 C-0.67 2.01 -0.34 1.02 0 0 Z " fill="#202E47" transform="translate(85,91)"/>
<path d="M0 0 C-1.36983503 3.16115776 -1.9890638 3.9927092 -5 6 C-6.32 5.34 -7.64 4.68 -9 4 C-2.25 0 -2.25 0 0 0 Z " fill="#E2E9EE" transform="translate(99,87)"/>
<path d="M0 0 C0.99 0 1.98 0 3 0 C2.67 1.32 2.34 2.64 2 4 C0.25 4.6875 0.25 4.6875 -2 5 C-4.25 3.5625 -4.25 3.5625 -6 2 C-4.35 2 -2.7 2 -1 2 C-0.67 1.34 -0.34 0.68 0 0 Z " fill="#D5D9E2" transform="translate(210,420)"/>
<path d="M0 0 C1.65 0 3.3 0 5 0 C5 2.64 5 5.28 5 8 C4.01 8 3.02 8 2 8 C2.33 6.02 2.66 4.04 3 2 C2.01 1.67 1.02 1.34 0 1 C0 0.67 0 0.34 0 0 Z " fill="#DD8338" transform="translate(367,388)"/>
<path d="M0 0 C2.64 0 5.28 0 8 0 C8.33 1.65 8.66 3.3 9 5 C8.34 5 7.68 5 7 5 C7 4.34 7 3.68 7 3 C4.69 2.34 2.38 1.68 0 1 C0 0.67 0 0.34 0 0 Z " fill="#D88944" transform="translate(395,389)"/>
<path d="M0 0 C0.66 0 1.32 0 2 0 C4.42857143 6.28571429 4.42857143 6.28571429 3 10 C1.5 8.9375 1.5 8.9375 0 7 C-0.1875 3.3125 -0.1875 3.3125 0 0 Z " fill="#3A485C" transform="translate(275,260)"/>
<path d="M0 0 C1.43739513 -0.02712066 2.87493863 -0.04645067 4.3125 -0.0625 C5.51326172 -0.07990234 5.51326172 -0.07990234 6.73828125 -0.09765625 C9 0 9 0 12 1 C11.67 1.66 11.34 2.32 11 3 C9.96875 2.79375 8.9375 2.5875 7.875 2.375 C3.8765784 1.98805597 1.66306243 2.48116924 -2 4 C-2 3.34 -2 2.68 -2 2 C-1.34 2 -0.68 2 0 2 C0 1.34 0 0.68 0 0 Z " fill="#FCE7CA" transform="translate(592,237)"/>
<path d="M0 0 C0.804375 0.4640625 0.804375 0.4640625 1.625 0.9375 C4.3984957 2.17827439 7.00042837 2.5909675 10 3 C10 2.34 10 1.68 10 1 C11.32 1.33 12.64 1.66 14 2 C12 4 12 4 9.94140625 4.265625 C9.15636719 4.26046875 8.37132812 4.2553125 7.5625 4.25 C6.38880859 4.25773438 6.38880859 4.25773438 5.19140625 4.265625 C3 4 3 4 0 2 C0 1.34 0 0.68 0 0 Z " fill="#D98F4B" transform="translate(597,176)"/>
<path d="M0 0 C2.27795022 2.27795022 3.05219877 3.93787293 4 7 C3.625 9.3125 3.625 9.3125 3 11 C2.34 10.67 1.68 10.34 1 10 C0.23597322 6.56187949 0 3.53471921 0 0 Z " fill="#455366" transform="translate(477,54)"/>
<path d="M0 0 C0.66 0.99 1.32 1.98 2 3 C-1 5 -1 5 -3.6875 4.625 C-4.450625 4.41875 -5.21375 4.2125 -6 4 C-6.33 3.01 -6.66 2.02 -7 1 C-4.03 1.495 -4.03 1.495 -1 2 C-0.67 1.34 -0.34 0.68 0 0 Z " fill="#494E5F" transform="translate(276,422)"/>
<path d="M0 0 C2.64 0 5.28 0 8 0 C8 0.66 8 1.32 8 2 C5.29120665 3.35439668 2.99066732 3.06501451 0 3 C0 2.01 0 1.02 0 0 Z " fill="#E9F2F6" transform="translate(404,421)"/>
<path d="M0 0 C2.97 0 5.94 0 9 0 C8.01 0.495 8.01 0.495 7 1 C7 1.66 7 2.32 7 3 C5.02 3 3.04 3 1 3 C0.67 2.01 0.34 1.02 0 0 Z " fill="#ECF4F8" transform="translate(258,421)"/>
<path d="M0 0 C0.33 0.66 0.66 1.32 1 2 C1.99 2.33 2.98 2.66 4 3 C-0.455 3.495 -0.455 3.495 -5 4 C-5.33 3.01 -5.66 2.02 -6 1 C-4.02 0.67 -2.04 0.34 0 0 Z " fill="#DA8C4A" transform="translate(368,394)"/>
<path d="M0 0 C0.33 0 0.66 0 1 0 C1 3.63 1 7.26 1 11 C0.01 10.67 -0.98 10.34 -2 10 C-2.25 3.375 -2.25 3.375 0 0 Z " fill="#DB8237" transform="translate(302,386)"/>
<path d="M0 0 C2.125 0.375 2.125 0.375 4 1 C-0.75 5.875 -0.75 5.875 -3 7 C-2.25 2.25 -2.25 2.25 0 0 Z " fill="#28354D" transform="translate(272,125)"/>
<path d="M0 0 C0.66 0.33 1.32 0.66 2 1 C2 1.66 2 2.32 2 3 C1.01 3 0.02 3 -1 3 C-1.66 4.65 -2.32 6.3 -3 8 C-3.99 7.67 -4.98 7.34 -6 7 C-4.02 4.69 -2.04 2.38 0 0 Z " fill="#303C51" transform="translate(74,71)"/>
<path d="M0 0 C2.97 0.495 2.97 0.495 6 1 C5.67 1.66 5.34 2.32 5 3 C3.1875 3.5625 3.1875 3.5625 1 4 C-0.11375 4.2784375 -0.11375 4.2784375 -1.25 4.5625 C-1.8275 4.706875 -2.405 4.85125 -3 5 C-2.01 3.35 -1.02 1.7 0 0 Z " fill="#1F2D49" transform="translate(78,68)"/>
<path d="M0 0 C0.33 0 0.66 0 1 0 C1.33 2.64 1.66 5.28 2 8 C3.32 8 4.64 8 6 8 C6 8.66 6 9.32 6 10 C4.33388095 10.042721 2.66617115 10.04063832 1 10 C0 9 0 9 -0.09765625 6.93359375 C-0.08605469 6.10988281 -0.07445312 5.28617187 -0.0625 4.4375 C-0.05347656 3.61121094 -0.04445313 2.78492188 -0.03515625 1.93359375 C-0.02355469 1.29550781 -0.01195312 0.65742188 0 0 Z " fill="#5A6474" transform="translate(394,416)"/>
<path d="M0 0 C2.31 0.66 4.62 1.32 7 2 C7.33 3.32 7.66 4.64 8 6 C5.36 4.68 2.72 3.36 0 2 C0 1.34 0 0.68 0 0 Z " fill="#2D364B" transform="translate(206,415)"/>
<path d="M0 0 C1.2065625 0.0309375 1.2065625 0.0309375 2.4375 0.0625 C2.4375 0.7225 2.4375 1.3825 2.4375 2.0625 C1.4475 2.0625 0.4575 2.0625 -0.5625 2.0625 C-0.5625 3.7125 -0.5625 5.3625 -0.5625 7.0625 C-1.5525 7.0625 -2.5425 7.0625 -3.5625 7.0625 C-3.60504356 5.06295254 -3.60330783 3.06208364 -3.5625 1.0625 C-2.5625 0.0625 -2.5625 0.0625 0 0 Z " fill="#687280" transform="translate(434.5625,406.9375)"/>
<path d="M0 0 C1.65 0 3.3 0 5 0 C4.67 0.99 4.34 1.98 4 3 C4.66 3 5.32 3 6 3 C6 3.66 6 4.32 6 5 C4.35 4.67 2.7 4.34 1 4 C0.67 2.68 0.34 1.36 0 0 Z " fill="#F7F7F4" transform="translate(214,401)"/>
<path d="M0 0 C2.64 0.99 5.28 1.98 8 3 C7.67 3.99 7.34 4.98 7 6 C5.68 5.67 4.36 5.34 3 5 C3.33 4.34 3.66 3.68 4 3 C2.68 2.67 1.36 2.34 0 2 C0 1.34 0 0.68 0 0 Z " fill="#FDE5C5" transform="translate(394,389)"/>
<path d="M0 0 C1.65 0 3.3 0 5 0 C4.67 1.32 4.34 2.64 4 4 C2.35 3.67 0.7 3.34 -1 3 C-0.67 2.01 -0.34 1.02 0 0 Z " fill="#FFE9CA" transform="translate(295,391)"/>
<path d="M0 0 C1.98 0 3.96 0 6 0 C6 1.98 6 3.96 6 6 C5.67 5.01 5.34 4.02 5 3 C3.02 3 1.04 3 -1 3 C-0.67 2.01 -0.34 1.02 0 0 Z " fill="#E0985A" transform="translate(295,388)"/>
<path d="M0 0 C0.33 0.99 0.66 1.98 1 3 C-1.31 3.33 -3.62 3.66 -6 4 C-6.33 3.01 -6.66 2.02 -7 1 C-4.53721199 -0.231394 -2.7204945 -0.07159196 0 0 Z " fill="#FEE6C7" transform="translate(300,385)"/>
<path d="M0 0 C0.33 0.66 0.66 1.32 1 2 C1.66 2 2.32 2 3 2 C3.33 2.66 3.66 3.32 4 4 C6.32156597 4.40729228 8.6568787 4.74438677 11 5 C11 5.33 11 5.66 11 6 C3.73846154 6.61538462 3.73846154 6.61538462 0 3.5 C-0.66 2.675 -1.32 1.85 -2 1 C-1.34 0.67 -0.68 0.34 0 0 Z " fill="#4A586B" transform="translate(173,311)"/>
<path d="M0 0 C2.46800047 1.15173355 4.04783565 2.04783565 6 4 C4.35 4.66 2.7 5.32 1 6 C0.67 4.02 0.34 2.04 0 0 Z " fill="#222F47" transform="translate(348,295)"/>
<path d="M0 0 C0.66 0.66 1.32 1.32 2 2 C1.60761402 5.66226912 -0.31566883 8.77780124 -2 12 C-3.12377697 8.69564916 -2.89554742 6.9493138 -1.5625 3.75 C-1.27503906 3.04359375 -0.98757813 2.3371875 -0.69140625 1.609375 C-0.46324219 1.07828125 -0.23507812 0.5471875 0 0 Z " fill="#48556A" transform="translate(412,259)"/>
<path d="M0 0 C1.49341969 2.98683937 0.40648676 4.95160978 -0.4375 8.125 C-0.72496094 9.22070312 -1.01242187 10.31640625 -1.30859375 11.4453125 C-1.53675781 12.28835937 -1.76492188 13.13140625 -2 14 C-2.33 14 -2.66 14 -3 14 C-3.34615998 8.34605369 -2.43425238 4.96993194 0 0 Z " fill="#4D586C" transform="translate(466,202)"/>
<path d="M0 0 C2.39073445 3.82517513 2.55966552 7.59665524 3 12 C0.9375 10.5 0.9375 10.5 -1 8 C-1.05928384 5.17593353 -0.55954815 2.79774073 0 0 Z " fill="#556074" transform="translate(259,180)"/>
<path d="M0 0 C0.66 0 1.32 0 2 0 C1.67 3.63 1.34 7.26 1 11 C-0.46132217 8.07735566 -1.34099246 6.07536854 -2 3 C-1.34 3 -0.68 3 0 3 C0 2.01 0 1.02 0 0 Z " fill="#344056" transform="translate(476,143)"/>
<path d="M0 0 C0.98333463 3.05926331 1.13453213 4.97458098 0 8 C-1.5625 10.25 -1.5625 10.25 -3 12 C-2.49202991 7.6822542 -1.80317221 3.96697886 0 0 Z " fill="#364356" transform="translate(57,95)"/>
<path d="M0 0 C2 3 2 3 1.625 5.6875 C1.41875 6.450625 1.2125 7.21375 1 8 C0.67 8 0.34 8 0 8 C0 6.35 0 4.7 0 3 C-0.99 3 -1.98 3 -3 3 C-3 5.31 -3 7.62 -3 10 C-3.33 10 -3.66 10 -4 10 C-4 7.36 -4 4.72 -4 2 C-2.68 2 -1.36 2 0 2 C0 1.34 0 0.68 0 0 Z " fill="#C3CAD3" transform="translate(400,414)"/>
<path d="M0 0 C5.53846154 -0.36923077 5.53846154 -0.36923077 7.875 1.5 C8.24625 1.995 8.6175 2.49 9 3 C6.45297384 4.27351308 5.5717055 3.80191925 2.875 3.0625 C2.15054687 2.86785156 1.42609375 2.67320312 0.6796875 2.47265625 C0.12539063 2.31667969 -0.42890625 2.16070312 -1 2 C-0.67 1.34 -0.34 0.68 0 0 Z " fill="#2E3445" transform="translate(354,408)"/>
<path d="M0 0 C2.475 0.99 2.475 0.99 5 2 C4.67 3.32 4.34 4.64 4 6 C3.01 5.67 2.02 5.34 1 5 C1 4.34 1 3.68 1 3 C0.34 3 -0.32 3 -1 3 C-0.67 2.01 -0.34 1.02 0 0 Z " fill="#FAF6F0" transform="translate(285,370)"/>
<path d="M0 0 C3.465 1.98 3.465 1.98 7 4 C6.67 4.66 6.34 5.32 6 6 C3.9375 6.625 3.9375 6.625 2 7 C1.34 4.69 0.68 2.38 0 0 Z " fill="#E4EAF1" transform="translate(329,321)"/>
<path d="M0 0 C0.8125 1.6875 0.8125 1.6875 1 4 C-1.4375 6.75 -1.4375 6.75 -4 9 C-3.38461538 3.46153846 -3.38461538 3.46153846 -1.4375 1.125 C-0.963125 0.75375 -0.48875 0.3825 0 0 Z " fill="#313D54" transform="translate(145,217)"/>
<path d="M0 0 C2.1991413 4.39828259 2.51855059 7.18550592 3 12 C2.67 11.34 2.34 10.68 2 10 C1.34 10 0.68 10 0 10 C0 6.7 0 3.4 0 0 Z " fill="#566275" transform="translate(312,198)"/>
<path d="M0 0 C0.66 0 1.32 0 2 0 C3.29676812 4.61073111 2.71109139 8.33840089 2 13 C1.67 13 1.34 13 1 13 C0.67 8.71 0.34 4.42 0 0 Z " fill="#324056" transform="translate(60,194)"/>
<path d="M0 0 C0.33 0 0.66 0 1 0 C1.33 3.63 1.66 7.26 2 11 C0.68 11.33 -0.64 11.66 -2 12 C-2 11.01 -2 10.02 -2 9 C-1.34 9 -0.68 9 0 9 C0 6.03 0 3.06 0 0 Z " fill="#E0E5E9" transform="translate(310,417)"/>
<path d="M0 0 C0.556875 0.804375 1.11375 1.60875 1.6875 2.4375 C4.21864487 5.24228216 5.32579134 5.69381595 9 6 C9 6.33 9 6.66 9 7 C3.55263158 8.33157895 3.55263158 8.33157895 1.125 6.875 C-0.32233508 4.46277487 -0.22417836 2.7648665 0 0 Z " fill="#5E6672" transform="translate(473,418)"/>
<path d="M0 0 C2.97 0 5.94 0 9 0 C6 3 6 3 3.3125 3.1875 C2.1678125 3.0946875 2.1678125 3.0946875 1 3 C0.67 2.01 0.34 1.02 0 0 Z " fill="#E8F2F6" transform="translate(367,421)"/>
<path d="M0 0 C1.65 0 3.3 0 5 0 C5.33 0.99 5.66 1.98 6 3 C3.69 3 1.38 3 -1 3 C-0.67 2.01 -0.34 1.02 0 0 Z " fill="#CBD3DF" transform="translate(259,416)"/>
<path d="M0 0 C2.5 1.1875 2.5 1.1875 5 3 C5.3125 5.6875 5.3125 5.6875 5 8 C4.01 8.33 3.02 8.66 2 9 C1.34 6.03 0.68 3.06 0 0 Z " fill="#61697A" transform="translate(445,414)"/>
<path d="M0 0 C2.31406112 3.47109168 2.08619615 4.94878113 2 9 C2.33 9.66 2.66 10.32 3 11 C1.68 11 0.36 11 -1 11 C-0.67 8.36 -0.34 5.72 0 3 C-0.99 2.67 -1.98 2.34 -3 2 C-2.01 2 -1.02 2 0 2 C0 1.34 0 0.68 0 0 Z " fill="#CDD3DD" transform="translate(314,414)"/>
<path d="M0 0 C3.96 1.98 3.96 1.98 8 4 C8 4.33 8 4.66 8 5 C6.02 5 4.04 5 2 5 C2 4.34 2 3.68 2 3 C1.01 2.67 0.02 2.34 -1 2 C-0.67 1.34 -0.34 0.68 0 0 Z " fill="#E6EAF2" transform="translate(336,326)"/>
<path d="M0 0 C2.49349318 1.24674659 3.46640071 2.69960106 5 5 C5 5.66 5 6.32 5 7 C0.125 5.25 0.125 5.25 -1 3 C-0.67 2.01 -0.34 1.02 0 0 Z " fill="#2A3951" transform="translate(337,322)"/>
<path d="M0 0 C-0.33 0.99 -0.66 1.98 -1 3 C-3.31 3.33 -5.62 3.66 -8 4 C-8 3.01 -8 2.02 -8 1 C-5.23735711 0.40267181 -2.83967231 0 0 0 Z " fill="#23324A" transform="translate(525,252)"/>
<path d="M0 0 C0.99 0 1.98 0 3 0 C2.67 3.63 2.34 7.26 2 11 C1.67 11 1.34 11 1 11 C0.67 7.37 0.34 3.74 0 0 Z " fill="#475366" transform="translate(274,167)"/>
<path d="M0 0 C1.22589844 0.15275391 1.22589844 0.15275391 2.4765625 0.30859375 C3.41628906 0.43427734 3.41628906 0.43427734 4.375 0.5625 C4.375 0.8925 4.375 1.2225 4.375 1.5625 C0.745 1.8925 -2.885 2.2225 -6.625 2.5625 C-6.625 1.9025 -6.625 1.2425 -6.625 0.5625 C-4.10446405 -0.69776798 -2.7707902 -0.35624445 0 0 Z " fill="#1F2D46" transform="translate(311.625,60.4375)"/>
<path d="M0 0 C0 0.66 0 1.32 0 2 C-2.31 2 -4.62 2 -7 2 C-7 1.34 -7 0.68 -7 0 C-4.3333581 -1.33332095 -2.83319697 -0.67102033 0 0 Z " fill="#CDD5E1" transform="translate(374,417)"/>
<path d="M0 0 C2.375 -0.1875 2.375 -0.1875 5 0 C5.66 0.99 6.32 1.98 7 3 C4.69 3 2.38 3 0 3 C0 2.01 0 1.02 0 0 Z " fill="#FEE9CC" transform="translate(325,385)"/>
<path d="M0 0 C2.31 0.33 4.62 0.66 7 1 C7 2.32 7 3.64 7 5 C6.01 4.67 5.02 4.34 4 4 C4 3.01 4 2.02 4 1 C2.68 0.67 1.36 0.34 0 0 Z " fill="#DD9C66" transform="translate(396,382)"/>
<path d="M0 0 C1.32 0.33 2.64 0.66 4 1 C3.67 2.32 3.34 3.64 3 5 C3.66 5.33 4.32 5.66 5 6 C3.68 6 2.36 6 1 6 C0.67 4.02 0.34 2.04 0 0 Z " fill="#F1F6F8" transform="translate(380,372)"/>
<path d="M0 0 C2.24606427 1.77444972 2.95081002 2.58352485 3.29296875 5.48046875 C3.25816406 6.37378906 3.22335937 7.26710937 3.1875 8.1875 C3.16042969 9.08855469 3.13335937 9.98960937 3.10546875 10.91796875 C3.07066406 11.60503906 3.03585937 12.29210937 3 13 C0.89172945 9.83759418 0.66182535 8.49342531 0.375 4.8125 C0.30023438 3.91144531 0.22546875 3.01039063 0.1484375 2.08203125 C0.09945313 1.39496094 0.05046875 0.70789063 0 0 Z " fill="#A1ABBA" transform="translate(269,224)"/>
<path d="M0 0 C0.66 0.33 1.32 0.66 2 1 C1.21654285 2.17219543 0.42297164 3.33763668 -0.375 4.5 C-0.81585938 5.1496875 -1.25671875 5.799375 -1.7109375 6.46875 C-2.13632813 6.9740625 -2.56171875 7.479375 -3 8 C-3.66 8 -4.32 8 -5 8 C-3.8141763 4.62496331 -2.72426311 2.35277269 0 0 Z " fill="#D8DEE6" transform="translate(87,93)"/>
<path d="M0 0 C0.33 0 0.66 0 1 0 C1.125 2.875 1.125 2.875 1 6 C-1 8 -1 8 -4.125 8.125 C-5.548125 8.063125 -5.548125 8.063125 -7 8 C-4.66785852 6.79371992 -2.50357861 5.8345262 0 5 C0 3.35 0 1.7 0 0 Z " fill="#282F40" transform="translate(448,418)"/>
<path d="M0 0 C-0.33 0.99 -0.66 1.98 -1 3 C-3.31 3.33 -5.62 3.66 -8 4 C-7.67 3.01 -7.34 2.02 -7 1 C-2.25 0 -2.25 0 0 0 Z " fill="#636879" transform="translate(412,423)"/>
<path d="M0 0 C1.65 0.33 3.3 0.66 5 1 C4.67 1.99 4.34 2.98 4 4 C1.525 3.01 1.525 3.01 -1 2 C-0.67 1.34 -0.34 0.68 0 0 Z " fill="#D8E0E9" transform="translate(271,421)"/>
<path d="M0 0 C0.78375 0.04125 1.5675 0.0825 2.375 0.125 C2.375 1.115 2.375 2.105 2.375 3.125 C0.065 2.795 -2.245 2.465 -4.625 2.125 C-2.625 0.125 -2.625 0.125 0 0 Z " fill="#D4DBE5" transform="translate(299.625,415.875)"/>
<path d="M0 0 C2.6855594 2.6855594 3.06049974 5.37621328 4 9 C3.01 8.67 2.02 8.34 1 8 C0.67 5.36 0.34 2.72 0 0 Z " fill="#FADEC0" transform="translate(307,388)"/>
<path d="M0 0 C1.98 0.99 1.98 0.99 4 2 C4 3.32 4 4.64 4 6 C3.01 6 2.02 6 1 6 C0.67 4.02 0.34 2.04 0 0 Z " fill="#DE843B" transform="translate(310,391)"/>
<path d="M0 0 C1.65 0 3.3 0 5 0 C5.33 1.65 5.66 3.3 6 5 C5.34 5 4.68 5 4 5 C4 4.34 4 3.68 4 3 C3.34 3 2.68 3 2 3 C2 2.34 2 1.68 2 1 C1.34 0.67 0.68 0.34 0 0 Z " fill="#DB8B4B" transform="translate(366,383)"/>
<path d="M0 0 C0.99 0.33 1.98 0.66 3 1 C1.71034824 2.37562854 0.37310707 3.70766393 -1 5 C-1.66 5 -2.32 5 -3 5 C-2.625 3.0625 -2.625 3.0625 -2 1 C-1.34 0.67 -0.68 0.34 0 0 Z " fill="#FBFCF9" transform="translate(278,379)"/>
<path d="M0 0 C-0.33 0.99 -0.66 1.98 -1 3 C-2.32303717 3.3721042 -3.65737935 3.70630173 -5 4 C-5.33 4.66 -5.66 5.32 -6 6 C-6 5.34 -6 4.68 -6 4 C-6.66 3.67 -7.32 3.34 -8 3 C-2.25 0 -2.25 0 0 0 Z " fill="#D9E0E7" transform="translate(135,298)"/>
<path d="M0 0 C2.64 0.33 5.28 0.66 8 1 C8 1.33 8 1.66 8 2 C4.37 2.33 0.74 2.66 -3 3 C-2.01 2.67 -1.02 2.34 0 2 C0 1.34 0 0.68 0 0 Z " fill="#455263" transform="translate(352,55)"/>
</svg>
